<svg width="400" height="90" viewBox="0 0 400 90" fill="none" xmlns="http://www.w3.org/2000/svg">
<path d="M88.4191 27.3224H99.9917C106.396 27.3224 109.055 24.7008 109.055 18.1093C109.055 11.5553 106.471 9.00858 99.9168 9.00858H82.2021V35H88.4191V27.3224ZM88.4191 14.1769H98.7932C102.052 14.1769 102.838 15.5626 102.838 18.1093C102.838 20.9182 101.939 22.1541 98.7932 22.1541H88.4191V14.1769ZM117.886 9.00858H111.669V35H117.886V24.139H133.953V35H140.17V9.00858H133.953V18.9707H117.886V9.00858ZM144.224 20.319V25.4873H159.505V20.319H144.224ZM171.343 9.00858H162.916L174.9 21.6298L161.455 35H170.594L179.807 24.7383L189.02 35H198.158L184.713 21.6298L196.697 9.00858H188.271L179.807 18.4838L171.343 9.00858ZM205.512 35L208.883 28.446H224.276L227.609 35H234.912L221.242 9.00858H212.029L198.247 35H205.512ZM211.392 23.5398L216.523 13.8773H216.823L221.766 23.5398H211.392ZM242.942 9.00858H236.725V35H242.942V23.8769H246.724L258.746 35H267.884L251.967 21.1804L267.285 9.00858H257.96L246.612 18.7085H242.942V9.00858ZM275.644 35L279.014 28.446H294.407L297.74 35H305.043L291.373 9.00858H282.16L268.378 35H275.644ZM281.523 23.5398L286.654 13.8773H286.954L291.898 23.5398H281.523ZM303.066 9.00858V14.1769H313.927V35H320.144V14.1769H331.117V9.00858H303.066ZM339.611 25.4873V18.5587C339.611 14.851 340.697 13.8773 344.592 13.8773H352.607C356.315 13.8773 357.588 14.7387 357.588 18.5213V25.4498C357.588 28.9703 356.689 29.8317 352.719 29.8317H344.48C340.697 29.8317 339.611 28.8954 339.611 25.4873ZM363.805 26.124V17.9595C363.805 10.6564 360.846 8.70896 354.405 8.70896H342.982C335.904 8.70896 333.394 10.8437 333.394 17.9595V26.124C333.394 32.4158 336.016 35 342.982 35H354.405C361.67 35 363.805 32.6031 363.805 26.124ZM373.431 9.00858H367.214V35H373.431V24.139H389.497V35H395.714V9.00858H389.497V18.9707H373.431V9.00858ZM120.353 53.8299C120.353 44.9914 117.507 42.3448 107.769 42.3448H95.2852C84.0997 42.3448 82.8513 47.8377 82.8513 55.1283H91.1406C91.1406 50.1347 91.4901 48.8863 99.4798 48.8863H105.272C110.765 48.8863 112.014 49.935 112.014 53.1308C112.014 56.3267 110.865 57.5751 106.421 57.8248L95.4351 58.424C84.7489 59.0232 82.8513 63.6672 82.8513 69.1102V77H120.303V70.4585H91.1406V68.6108C91.1406 66.4137 92.1892 65.6147 97.1329 65.3151L107.919 64.6659C115.259 64.2165 120.353 61.1205 120.353 53.8299ZM133.702 64.3164V55.0783C133.702 50.1347 135.15 48.8364 140.343 48.8364H151.03C155.973 48.8364 157.671 49.9849 157.671 55.0284V64.2664C157.671 68.9604 156.473 70.1089 151.179 70.1089H140.194C135.15 70.1089 133.702 68.8605 133.702 64.3164ZM165.96 65.1653V54.2794C165.96 44.5419 162.015 41.9453 153.427 41.9453H138.196C128.758 41.9453 125.413 44.7916 125.413 54.2794V65.1653C125.413 73.5545 128.908 77 138.196 77H153.427C163.114 77 165.96 73.8041 165.96 65.1653ZM208.107 53.8299C208.107 44.9914 205.26 42.3448 195.523 42.3448H183.039C171.854 42.3448 170.605 47.8377 170.605 55.1283H178.894C178.894 50.1347 179.244 48.8863 187.234 48.8863H193.026C198.519 48.8863 199.767 49.935 199.767 53.1308C199.767 56.3267 198.619 57.5751 194.175 57.8248L183.189 58.424C172.503 59.0232 170.605 63.6672 170.605 69.1102V77H208.057V70.4585H178.894V68.6108C178.894 66.4137 179.943 65.6147 184.887 65.3151L195.673 64.6659C203.013 64.2165 208.107 61.1205 208.107 53.8299ZM221.456 64.3164V55.0783C221.456 50.1347 222.904 48.8364 228.097 48.8364H238.783C243.727 48.8364 245.425 49.9849 245.425 55.0284V64.2664C245.425 68.9604 244.226 70.1089 238.933 70.1089H227.947C222.904 70.1089 221.456 68.8605 221.456 64.3164ZM253.714 65.1653V54.2794C253.714 44.5419 249.769 41.9453 241.18 41.9453H225.95C216.512 41.9453 213.167 44.7916 213.167 54.2794V65.1653C213.167 73.5545 216.662 77 225.95 77H241.18C250.868 77 253.714 73.8041 253.714 65.1653Z" fill="white"/>
<g clip-path="url(#clip0)">
<path d="M32.53 8.96677L32.221 8.78956L31.912 8.96677L0.981026 26.7048L0.668876 26.8838V27.2437V62.719V63.0789L0.981045 63.2579L31.912 80.9945L32.221 81.1717L32.53 80.9945L63.4609 63.2579L63.7731 63.0789V62.719V27.2437V26.8838L63.4609 26.7048L32.53 8.96677ZM48.7673 33.9211L33.5875 25.2158V12.7154L59.6671 27.6709L48.7673 33.9211ZM17.0405 53.6827V37.8468L30.8552 45.768V61.6053L17.0405 53.6827ZM33.5876 61.6039L33.5883 45.7673L47.4015 37.8461V53.6827L33.5876 61.6039ZM46.0286 35.4923L32.2217 43.4098L18.4141 35.4922L32.221 27.574L46.0286 35.4923ZM4.77491 27.6709L30.8544 12.7154V25.2158L15.6747 33.9211L4.77491 27.6709ZM3.40199 30.0262L14.3074 36.2793V53.6834L3.40199 59.9372V30.0262ZM4.77488 62.2918L15.6747 56.0409L30.8544 64.7462V77.2466L4.77488 62.2918ZM33.5875 77.2466V64.7462L48.768 56.0409L59.6671 62.2918L33.5875 77.2466ZM61.04 59.9372L50.1346 53.6827V36.2793L61.04 30.0262V59.9372Z" fill="white" stroke="white" stroke-width="1.24233"/>
</g>
<defs>
<clipPath id="clip0">
<rect y="7.57068" width="64.5" height="74.82" fill="white"/>
</clipPath>
</defs>
</svg>
