<svg width="318" height="144" viewBox="0 0 318 144" fill="none" xmlns="http://www.w3.org/2000/svg">
<g clip-path="url(#clip0)">
<path fill-rule="evenodd" clip-rule="evenodd" d="M60 1L90 18.8L120 36.5V39.9H108.6V93L81.8 39.8H60.9V103.8V104H73.5V51L100.3 104H120V107.4L90 125.2L60 142.9L30 125.2L0 107.4V104H11.4V82.6H28.2C31 82.6 33.4 83 35.1 84.3C36.7 85.6 37.7 87.6 37.7 90.8V104H50.3V89.8C50.3 86 49.5 83 47.7 80.9C46 78.8 43.3 77.6 39.6 77.3C44.5 76.7 47.4 74.3 49 71.1C50.6 68 51 64 51 59.8C51 52.5 49.3 47.5 45.8 44.4C42.3 41.2 37.1 39.9 30.1 39.9H0V36.5L30 18.8L60 1ZM28.7 50.6H11.4V71.9H28.2C31.9 71.9 34.4 71 36 69.3C37.6 67.6 38.3 65 38.3 61.4C38.3 57.5 37.8 54.8 36.4 53.1C34.9 51.4 32.5 50.6 28.7 50.6Z" fill="#F6D10E"/>
<mask id="mask0" mask-type="alpha" maskUnits="userSpaceOnUse" x="-1" y="0" width="122" height="108">
<path d="M120.4 0.600098H-0.400024V107.8H120.4V0.600098Z" fill="url(#paint0_linear)"/>
</mask>
<g mask="url(#mask0)">
<path fill-rule="evenodd" clip-rule="evenodd" d="M0 107.4L5.7 104H0V107.4ZM11.4 100.7L36.4 85.9C36 85.3 35.5 84.8 35 84.4C33.3 83.1 31 82.7 28.1 82.7H11.4V100.7ZM46.6 79.8L61 71.3V39.8H81.9L89.4 54.6L108.7 43.2V39.8H114.5L120.2 36.4C100 24.6 80 12.8 60 1C40 12.8 20 24.6 0 36.5V39.9H30.2C37.2 39.9 42.4 41.2 45.9 44.4C49.4 47.6 51.1 52.5 51.1 59.8C51 64 50.6 68 49 71.2C47.4 74.4 44.5 76.7 39.6 77.4C42.6 77.6 44.9 78.4 46.6 79.8ZM73.6 63.9L78.6 60.9L73.6 51V63.9ZM28.7 50.6H11.4V71.9H28.2C31.9 71.9 34.4 71 36 69.3C37.6 67.6 38.3 65 38.3 61.4C38.3 57.5 37.8 54.8 36.4 53.1C34.9 51.4 32.5 50.6 28.7 50.6Z" fill="#EF7822"/>
</g>
<mask id="mask1" mask-type="alpha" maskUnits="userSpaceOnUse" x="-1" y="0" width="122" height="108">
<path d="M120.4 0.600098H-0.400024V107.8H120.4V0.600098Z" fill="url(#paint1_linear)"/>
</mask>
<g mask="url(#mask1)">
<path fill-rule="evenodd" clip-rule="evenodd" d="M120 107.4L114.3 104H120V107.4ZM94.4 92.2L73.6 80V51.1L94.4 92.2ZM60.9 72.5L50.5 66.3C50.9 64.2 51 62 51 59.7C51 52.4 49.3 47.4 45.8 44.3C42.3 41.1 37.1 39.8 30.1 39.8H5.7L0 36.5C20 24.6 40 12.8 60 1C80 12.8 100 24.6 120 36.5V39.9H108.6V93L81.8 39.8H60.9V72.5ZM38.2 59L23.9 50.5H28.7C32.5 50.5 34.9 51.3 36.3 53C37.4 54.5 38 56.4 38.2 59Z" fill="#EF7822"/>
</g>
<path d="M118.4 48.6001H126.7L133.8 68.4001H133.9L140.9 48.6001H149.5V75.3001H144.4V52.8001L136.1 75.3001H131.6L123.4 53.0001V75.4001H118.3V48.6001H118.4Z" fill="#151616"/>
<path d="M171.1 70.2001H159.7L158 75.3001H152.8L161.6 48.6001H169L177.9 75.3001H172.8L171.1 70.2001ZM169.9 66.4001L165.3 52.5001L160.8 66.4001H169.9Z" fill="#151616"/>
<path d="M186.1 66.6001V75.4001H181V48.6001H192.2C195.7 48.6001 198.1 49.1001 199.5 50.2001C201.2 51.5001 202 53.9001 202 57.3001C202 60.9001 201.3 63.3001 200 64.6001C198.7 65.9001 196.2 66.5001 192.6 66.5001H186.1V66.6001ZM186.1 53.0001V62.3001H192.2C194 62.3001 195.2 62.0001 195.9 61.5001C196.6 60.9001 197 59.7001 197 58.0001C197 56.1001 196.7 54.8001 196 54.1001C195.3 53.4001 194.1 53.1001 192.3 53.1001H186.1V53.0001Z" fill="#151616"/>
<path d="M222.8 70.2001H211.4L209.7 75.3001H204.5L213.3 48.6001H220.7L229.6 75.3001H224.5L222.8 70.2001ZM221.7 66.4001L217.1 52.5001L212.6 66.4001H221.7Z" fill="#151616"/>
<path d="M245.7 48.6001H250.8V51.1001H254C257.5 51.1001 260.1 51.9001 261.7 53.6001C263.3 55.3001 264.1 58.0001 264.1 61.7001C264.1 65.4001 263.3 68.1001 261.7 69.7001C260.1 71.4001 257.5 72.2001 254 72.2001H250.8V75.2001H245.7V72.2001H242.5C239 72.2001 236.5 71.4001 234.9 69.7001C233.3 68.0001 232.5 65.4001 232.5 61.7001C232.5 58.0001 233.3 55.3001 235 53.6001C236.7 51.9001 239.3 51.1001 242.9 51.1001H245.8V48.6001H245.7ZM245.7 68.0001V55.5001H242.4C240.7 55.5001 239.4 56.0001 238.7 57.0001C238 58.0001 237.6 59.6001 237.6 61.8001C237.6 64.0001 238 65.6001 238.7 66.6001C239.4 67.6001 240.7 68.0001 242.5 68.0001H245.7ZM250.8 55.5001V68.0001H254.1C255.9 68.0001 257.1 67.5001 257.9 66.6001C258.6 65.7001 259 64.1001 259 61.8001C259 59.5001 258.6 57.9001 257.9 57.0001C257.2 56.0001 255.9 55.5001 254.1 55.5001H250.8Z" fill="#151616"/>
<path d="M268.1 61.4001C268.1 56.3001 268.9 52.8 270.4 51C271.9 49.2 274.9 48.3 279.4 48.3C283.8 48.3 286.8 49.2 288.4 51C290 52.8 290.7 56.2001 290.7 61.4001C290.7 67.2001 289.9 71.0001 288.4 72.9001C286.9 74.7001 283.9 75.6 279.4 75.6C274.7 75.6 271.6 74.7001 270.2 72.9001C268.8 71.2001 268.1 67.4001 268.1 61.4001ZM273.2 62C273.2 66.2 273.5 68.7001 274.2 69.8001C274.9 70.8001 276.6 71.3001 279.3 71.3001C282 71.3001 283.7 70.8 284.4 69.7C285.1 68.7 285.5 66.1 285.5 62C285.5 57.8 285.1 55.2 284.3 54.1C283.6 53.2 282 52.7001 279.3 52.7001C276.6 52.7001 274.9 53.2 274.3 54.1C273.6 55.2 273.2 57.8 273.2 62Z" fill="#151616"/>
<path d="M300.1 48.6001V59.7001H312.4V48.6001H317.5V75.3001H312.4V63.9001H300.1V75.3001H295V48.6001H300.1Z" fill="#151616"/>
<path d="M125.3 85H128.4V96.5H126.2V88.9C126.2 88.5 126.2 88.2 126.2 87.9C126.2 87.6 126.3 87.3 126.3 86.9L121.5 96.5H118.4V85H120.6V92.6C120.6 93 120.6 93.3 120.6 93.6C120.6 93.9 120.5 94.2 120.5 94.6L125.3 85Z" fill="#151616"/>
<path d="M135.6 86.8V96.5H133.4V86.8H130V85H138.9V86.9H135.6V86.8Z" fill="#151616"/>
<path d="M155.6 92.4001H157.7V93.1001C157.7 94.4001 157.4 95.4001 156.7 95.9001C156 96.4001 154.8 96.7001 153 96.7001C151.1 96.7001 149.8 96.3001 149.2 95.5001C148.5 94.7001 148.2 93.1001 148.2 90.6001C148.2 88.5001 148.5 87.1001 149.1 86.3001C149.8 85.4001 151.1 84.9001 152.9 84.9001C154.7 84.9001 155.9 85.2001 156.7 85.9001C157.3 86.5001 157.7 87.5001 157.7 88.9001H155.6C155.6 88.0001 155.4 87.5001 155.1 87.2001C154.8 86.9001 154.1 86.8001 153 86.8001C152 86.8001 151.3 87.0001 151 87.5001C150.7 88.0001 150.5 89.1001 150.5 90.8001C150.5 92.4001 150.7 93.5001 151 94.0001C151.3 94.5001 152 94.8001 153.1 94.8001C154.1 94.8001 154.8 94.7001 155.2 94.5001C155.6 94.3001 155.7 93.8001 155.7 93.2001V92.4001H155.6Z" fill="#151616"/>
<path d="M159.7 90.5C159.7 88.3 160 86.8 160.7 86C161.4 85.2 162.7 84.8 164.6 84.8C166.5 84.8 167.8 85.2 168.5 86C169.2 86.8 169.5 88.3 169.5 90.5C169.5 93 169.2 94.7 168.5 95.5C167.8 96.3 166.5 96.7 164.6 96.7C162.6 96.7 161.2 96.3 160.6 95.6C160 94.7 159.7 93.1 159.7 90.5ZM161.9 90.7C161.9 92.5 162 93.6 162.3 94.1C162.6 94.5 163.3 94.8 164.5 94.8C165.7 94.8 166.4 94.6 166.7 94.1C167 93.6 167.2 92.5 167.2 90.8C167.2 89 167 87.9 166.7 87.4C166.4 87 165.7 86.8 164.5 86.8C163.3 86.8 162.6 87 162.3 87.4C162 87.8 161.9 88.9 161.9 90.7Z" fill="#151616"/>
<path d="M173.4 92.7V96.5H171.2V85H176C177.5 85 178.6 85.2 179.2 85.7C179.9 86.3 180.3 87.3 180.3 88.8C180.3 90.4 180 91.4 179.4 91.9C178.8 92.4 177.8 92.7 176.2 92.7H173.4V92.7ZM173.4 86.8V90.8H176C176.8 90.8 177.3 90.7 177.6 90.4C177.9 90.1 178.1 89.6 178.1 88.9C178.1 88.1 178 87.5 177.7 87.2C177.4 86.9 176.9 86.8 176.1 86.8H173.4V86.8Z" fill="#151616"/>
<path d="M184.3 86.8V89.8H189.6V91.6H184.3V94.7H189.9V96.5H182.1V85H189.9V86.8H184.3Z" fill="#151616"/>
<path d="M191.7 96.5V85H197.5C198.6 85 199.3 85.2 199.9 85.7C200.4 86.2 200.7 86.9 200.7 87.9C200.7 88.6 200.6 89.2 200.3 89.6C200 90.1 199.6 90.4 199.1 90.5V90.6C200.4 90.8 201 91.7 201 93.2C201 94.2 200.7 95.1 200.2 95.6C199.7 96.1 198.8 96.5 197.8 96.5H191.7V96.5ZM193.8 86.8V89.8H196.5C197.2 89.8 197.7 89.7 198 89.5C198.3 89.3 198.4 88.8 198.4 88.2C198.4 87.7 198.3 87.3 198 87.1C197.8 86.9 197.4 86.8 196.8 86.8H193.8V86.8ZM193.8 91.5V94.7H196.5C197.3 94.7 197.8 94.6 198.1 94.4C198.5 94.1 198.6 93.7 198.6 93.1C198.6 92.5 198.5 92.1 198.2 91.9C197.9 91.7 197.5 91.6 196.8 91.6H193.8V91.5Z" fill="#151616"/>
<path d="M205.3 85V89.8H210.6V85H212.8V96.5H210.6V91.6H205.3V96.5H203.1V85H205.3Z" fill="#151616"/>
<path d="M214.8 90.5C214.8 88.3 215.1 86.8 215.8 86C216.5 85.2 217.8 84.8 219.7 84.8C221.6 84.8 222.9 85.2 223.6 86C224.3 86.8 224.6 88.3 224.6 90.5C224.6 93 224.3 94.7 223.6 95.5C222.9 96.3 221.6 96.7 219.7 96.7C217.7 96.7 216.3 96.3 215.7 95.6C215.1 94.7 214.8 93.1 214.8 90.5ZM217 90.7C217 92.5 217.1 93.6 217.4 94.1C217.7 94.5 218.4 94.8 219.6 94.8C220.8 94.8 221.5 94.6 221.8 94.1C222.1 93.6 222.3 92.5 222.3 90.8C222.3 89 222.1 87.9 221.8 87.4C221.5 87 220.8 86.8 219.6 86.8C218.4 86.8 217.7 87 217.4 87.4C217.2 87.8 217 88.9 217 90.7Z" fill="#151616"/>
<path d="M226.3 96.5V85H232.1C233.2 85 233.9 85.2 234.5 85.7C235 86.2 235.3 86.9 235.3 87.9C235.3 88.6 235.2 89.2 234.9 89.6C234.6 90.1 234.2 90.4 233.7 90.5V90.6C235 90.8 235.6 91.7 235.6 93.2C235.6 94.2 235.3 95.1 234.8 95.6C234.3 96.1 233.4 96.5 232.4 96.5H226.3V96.5ZM228.5 86.8V89.8H231.2C231.9 89.8 232.4 89.7 232.7 89.5C233 89.3 233.1 88.8 233.1 88.2C233.1 87.7 233 87.3 232.7 87.1C232.5 86.9 232.1 86.8 231.5 86.8H228.5V86.8ZM228.5 91.5V94.7H231.2C232 94.7 232.5 94.6 232.8 94.4C233.2 94.1 233.3 93.7 233.3 93.1C233.3 92.5 233.2 92.1 232.9 91.9C232.6 91.7 232.2 91.6 231.5 91.6H228.5V91.5Z" fill="#151616"/>
<path d="M244.9 94.3H240L239.3 96.5H237L240.8 85H244L247.9 96.5H245.7L244.9 94.3ZM244.4 92.7L242.4 86.7L240.5 92.7H244.4Z" fill="#151616"/>
<path d="M251.3 85V89.8H256.6V85H258.8V96.5H256.6V91.6H251.3V96.5H249.1V85H251.3Z" fill="#151616"/>
<path d="M267.9 85H271V96.5H268.8V88.9C268.8 88.5 268.8 88.2 268.8 87.9C268.8 87.6 268.9 87.3 268.9 86.9L264.1 96.5H261V85H263.2V92.6C263.2 93 263.2 93.3 263.2 93.6C263.2 93.9 263.1 94.2 263.1 94.6L267.9 85Z" fill="#151616"/>
<path d="M280.2 85.0001H283.3V96.5001H281.1V88.9001C281.1 88.5001 281.1 88.2001 281.1 87.9001C281.1 87.6001 281.2 87.3001 281.2 86.9001L276.4 96.5001H273.3V85.0001H275.5V92.6001C275.5 93.0001 275.5 93.3001 275.5 93.6001C275.5 93.9001 275.4 94.2001 275.4 94.6001L280.2 85.0001ZM278.1 84.3001C277.3 84.3001 276.7 84.2001 276.3 83.9001C275.8 83.5001 275.6 82.9001 275.6 82.1001H277C277 82.5001 277.1 82.7001 277.2 82.8001C277.4 82.9001 277.7 83.0001 278.1 83.0001C278.6 83.0001 278.9 82.9001 279.1 82.8001C279.3 82.7001 279.3 82.4001 279.3 82.1001H280.7C280.7 82.9001 280.5 83.5001 280 83.9001C279.5 84.1001 278.9 84.3001 278.1 84.3001Z" fill="#151616"/>
<path d="M139.1 90.5H146.5V91.6H139.1V90.5Z" fill="#151616"/>
</g>
<defs>
<linearGradient id="paint0_linear" x1="99.7552" y1="149.866" x2="44.4387" y2="16.7094" gradientUnits="userSpaceOnUse">
<stop stop-color="white"/>
<stop offset="1" stop-color="white" stop-opacity="0"/>
</linearGradient>
<linearGradient id="paint1_linear" x1="20.2727" y1="149.873" x2="75.5888" y2="16.7164" gradientUnits="userSpaceOnUse">
<stop stop-color="white"/>
<stop offset="1" stop-color="white" stop-opacity="0"/>
</linearGradient>
<clipPath id="clip0">
<rect width="317.8" height="143.1" fill="white"/>
</clipPath>
</defs>
</svg>
