<svg width="24" height="24" viewBox="0 0 24 24" fill="none" xmlns="http://www.w3.org/2000/svg">
<path d="M5 2H19V10C19 13.866 15.866 17 12 17C8.13401 17 5 13.866 5 10V2Z" fill="white"/>
<path fill-rule="evenodd" clip-rule="evenodd" d="M20 1H4V4H0V8C0 10.6124 1.66962 12.8349 4 13.6586C4.3295 13.7751 4.67221 13.8635 5.02529 13.9212C6.24178 16.0804 8.43188 17.6179 11 17.9381V19C11 20.1046 10.1046 21 9 21H7V23H17V21H15C13.8954 21 13 20.1046 13 19V17.9381C15.5681 17.6179 17.7582 16.0804 18.9747 13.9212C19.3278 13.8635 19.6705 13.7751 20 13.6586C22.3304 12.8349 24 10.6124 24 8V4H20V1ZM6 10V3H18V10C18 13.3137 15.3137 16 12 16C8.68629 16 6 13.3137 6 10ZM2 6H4V11.4649C2.8044 10.7733 2 9.48056 2 8V6ZM20 11.4649C21.1956 10.7733 22 9.48056 22 8V6H20V11.4649Z" fill="#231F20"/>
</svg>
