<svg width="24" height="24" viewBox="0 0 24 24" fill="none" xmlns="http://www.w3.org/2000/svg">
<path d="M3 6C3 4.89543 3.89543 4 5 4H19C20.1046 4 21 4.89543 21 6V20C21 21.1046 20.1046 22 19 22H5C3.89543 22 3 21.1046 3 20V6Z" fill="white"/>
<path fill-rule="evenodd" clip-rule="evenodd" d="M17 3V1H15V3H9V1H7V3H5C3.34315 3 2 4.34315 2 6V20C2 21.6569 3.34315 23 5 23H19C20.6569 23 22 21.6569 22 20V6C22 4.34315 20.6569 3 19 3H17ZM20 9V6C20 5.44772 19.5523 5 19 5H17V7H15V5H9V7H7V5H5C4.44772 5 4 5.44772 4 6V9H20ZM4 11V20C4 20.5523 4.44772 21 5 21H19C19.5523 21 20 20.5523 20 20V11H4Z" fill="#231F20"/>
</svg>
