<svg width="24" height="24" viewBox="0 0 24 24" fill="none" xmlns="http://www.w3.org/2000/svg">
<path fill-rule="evenodd" clip-rule="evenodd" d="M12 22C14 22 20 14.4183 20 10C20 5.58172 16.4183 2 12 2C7.58172 2 4 5.58172 4 10C4 14.4183 10 22 12 22ZM12 13C13.6569 13 15 11.6569 15 10C15 8.34315 13.6569 7 12 7C10.3431 7 9 8.34315 9 10C9 11.6569 10.3431 13 12 13Z" fill="white"/>
<path d="M11.5091 22.8712C11.5091 22.8712 11.5098 22.8716 12.0001 22L12.4903 22.8716L12.0001 23.1473L11.5091 22.8712Z" fill="#231F20"/>
<path fill-rule="evenodd" clip-rule="evenodd" d="M11.9998 6C9.79076 6.0001 8 7.79092 8 10C8 12.2091 9.79083 14 11.9999 14C12 14 11.9999 14 11.9999 14C14.2091 14 16 12.2091 16 10C16 7.79086 14.209 6 11.9998 6C11.9999 6 11.9998 6 11.9998 6ZM12 8C12 8 12 8 12 8C13.1046 8 14 8.89543 14 10C14 11.1046 13.1046 12 12 12C12 12 12 12 12 12C10.8955 12 10 11.1045 10 10C10 8.89548 10.8955 8.00008 12 8Z" fill="#231F20"/>
<path fill-rule="evenodd" clip-rule="evenodd" d="M11.5091 22.8712L12.0001 22C12.4903 22.8716 12.4919 22.8707 12.4919 22.8707L12.4942 22.8694L12.5009 22.8656L12.5229 22.8529C12.5413 22.8423 12.5672 22.8273 12.5999 22.8078C12.6654 22.769 12.7585 22.7127 12.8754 22.6394C13.1091 22.4927 13.4384 22.2773 13.8315 21.9964C14.6159 21.4359 15.6632 20.6082 16.7137 19.538C18.7947 17.4179 20.9955 14.2335 21.0001 10.2124C21.0283 9.01596 20.8176 7.82584 20.3803 6.71171C19.9415 5.59368 19.2833 4.57479 18.4446 3.71509C17.6059 2.85538 16.6035 2.17225 15.4967 1.70596C14.39 1.23974 13.2006 0.999709 11.9997 1C10.7989 0.999709 9.61011 1.23974 8.50345 1.70596C7.39659 2.17225 6.39426 2.85538 5.55552 3.71509C4.71679 4.57479 4.05861 5.59368 3.61978 6.71171C3.18248 7.82585 2.97182 9.01597 3.00007 10.2124C3.00459 14.2335 5.20538 17.418 7.28642 19.538C8.33688 20.6082 9.38424 21.4359 10.1687 21.9964C10.5617 22.2773 10.891 22.4927 11.1247 22.6394C11.2416 22.7127 11.3347 22.769 11.4002 22.8078C11.4329 22.8273 11.4588 22.8423 11.4772 22.8529L11.4992 22.8656L11.506 22.8694L11.5091 22.8712ZM9.27992 3.54908C10.1408 3.1864 11.0656 2.99971 11.9997 3C11.9998 3 11.9997 3 11.9997 3C12.9339 2.99971 13.8593 3.1864 14.7202 3.54908C15.5811 3.91175 16.3607 4.44307 17.013 5.11173C17.6654 5.78039 18.1773 6.57286 18.5186 7.44244C18.8599 8.31203 19.0237 9.24113 19.0004 10.175L19.0001 10.1875V10.2C19.0001 13.4731 17.2032 16.1842 15.2864 18.137C14.3369 19.1043 13.3842 19.8579 12.6687 20.3692C12.4096 20.5543 12.1829 20.7068 12.0001 20.8254C11.8172 20.7068 11.5905 20.5543 11.3315 20.3692C10.6159 19.8579 9.66324 19.1043 8.7137 18.137C6.79689 16.1842 5.00006 13.4731 5.00006 10.2V10.1875L4.99975 10.175C4.97639 9.24113 5.1402 8.31202 5.48151 7.44244C5.82282 6.57286 6.33473 5.78039 6.98709 5.11173C7.63944 4.44307 8.41902 3.91175 9.27992 3.54908Z" fill="#231F20"/>
</svg>
