<svg width="256" height="256" viewBox="0 0 256 256" fill="none" xmlns="http://www.w3.org/2000/svg">
<g clip-path="url(#clip0)">
<path fill-rule="evenodd" clip-rule="evenodd" d="M82.5891 129.756C80.4474 129.793 78.3191 129.402 76.3299 128.607C74.3406 127.811 72.5301 126.626 71.0028 125.123C69.4755 123.619 68.2621 121.827 67.4342 119.849C66.6063 117.871 66.1804 115.748 66.1807 113.603C66.1807 109.247 67.909 105.069 70.9861 101.988C74.0633 98.9079 78.2374 97.1777 82.5891 97.1777C86.9409 97.1777 91.1141 98.9079 94.1913 101.988C97.2685 105.069 98.9967 109.247 98.9967 113.603C98.9971 115.748 98.5711 117.871 97.7432 119.849C96.9153 121.827 95.7019 123.619 94.1746 125.123C92.6473 126.626 90.8368 127.811 88.8476 128.607C86.8583 129.402 84.7309 129.793 82.5891 129.756" fill="white"/>
<path fill-rule="evenodd" clip-rule="evenodd" d="M238.695 64.4153C234.343 64.4153 230.17 62.6851 227.093 59.6046C224.016 56.5241 222.288 52.3463 222.288 47.9899C222.288 43.6334 224.016 39.4556 227.093 36.3751C230.17 33.2946 234.343 31.5645 238.695 31.5645C243.047 31.5645 247.221 33.2946 250.298 36.3751C253.375 39.4556 255.104 43.6334 255.104 47.9899C255.104 52.3463 253.375 56.5241 250.298 59.6046C247.221 62.6851 243.047 64.4153 238.695 64.4153Z" fill="white"/>
<path fill-rule="evenodd" clip-rule="evenodd" d="M172.242 114.244C167.89 114.244 163.717 112.513 160.64 109.433C157.562 106.352 155.833 102.175 155.833 97.8182C155.833 93.4617 157.562 89.2839 160.64 86.2034C163.717 83.123 167.89 81.3911 172.242 81.3911C176.593 81.3911 180.767 83.123 183.844 86.2034C186.921 89.2839 188.65 93.4617 188.65 97.8182C188.65 102.175 186.921 106.352 183.844 109.433C180.767 112.513 176.593 114.244 172.242 114.244" fill="white"/>
<path fill-rule="evenodd" clip-rule="evenodd" d="M16.4084 179.853C12.0567 179.853 7.88341 178.121 4.80627 175.04C1.72913 171.96 0 167.782 0 163.425C0 159.069 1.72913 154.891 4.80627 151.811C7.88341 148.73 12.0567 147 16.4084 147C20.7601 147 24.9334 148.73 28.0105 151.811C31.0877 154.891 32.8168 159.069 32.8168 163.425C32.8168 167.782 31.0877 171.96 28.0105 175.04C24.9334 178.121 20.7601 179.853 16.4084 179.853" fill="white"/>
<path fill-rule="evenodd" clip-rule="evenodd" d="M106.627 56.2148C102.276 56.2148 98.1024 54.483 95.0253 51.4025C91.9481 48.322 90.219 44.1442 90.219 39.7877C90.219 35.4313 91.9481 31.2535 95.0253 28.173C98.1024 25.0925 102.276 23.3623 106.627 23.3623C110.979 23.3623 115.152 25.0925 118.23 28.173C121.307 31.2535 123.036 35.4313 123.036 39.7877C123.036 44.1442 121.307 48.322 118.23 51.4025C115.152 54.483 110.979 56.2148 106.627 56.2148" fill="white"/>
<path fill-rule="evenodd" clip-rule="evenodd" d="M85.8694 181.496C83.7058 181.496 81.5909 180.853 79.792 179.65C77.9931 178.447 76.5906 176.737 75.7627 174.736C74.9347 172.735 74.718 170.534 75.1401 168.41C75.5622 166.285 76.6047 164.333 78.1345 162.802C79.6644 161.27 81.6134 160.227 83.7354 159.804C85.8573 159.382 88.0567 159.599 90.0556 160.427C92.0544 161.256 93.7625 162.66 94.9645 164.461C96.1665 166.262 96.8081 168.379 96.8081 170.545C96.8081 173.449 95.6556 176.234 93.6042 178.288C91.5527 180.342 88.7705 181.496 85.8694 181.496" fill="white"/>
<path fill-rule="evenodd" clip-rule="evenodd" d="M19.1411 94.4749C16.9776 94.4749 14.8626 93.8317 13.0637 92.6285C11.2648 91.4252 9.86236 89.7152 9.03442 87.7142C8.20648 85.7132 7.98975 83.5122 8.41183 81.388C8.83391 79.2638 9.87644 77.3118 11.4063 75.7803C12.9361 74.2488 14.8851 73.2052 17.0071 72.7827C19.129 72.3601 21.3285 72.5771 23.3273 73.4059C25.3261 74.2348 27.0343 75.6387 28.2363 77.4396C29.4382 79.2404 30.0798 81.3576 30.0798 83.5235C30.0798 86.4278 28.9273 89.213 26.8759 91.2666C24.8245 93.3203 22.0423 94.4749 19.1411 94.4749" fill="white"/>
<path fill-rule="evenodd" clip-rule="evenodd" d="M180.49 188.341C176.001 188.341 171.612 189.674 167.879 192.171C164.147 194.667 161.237 198.215 159.52 202.367C157.802 206.519 157.352 211.088 158.228 215.495C159.103 219.903 161.266 223.952 164.44 227.13C167.615 230.308 171.659 232.473 176.062 233.349C180.465 234.226 185.028 233.776 189.176 232.056C193.324 230.336 196.869 227.425 199.363 223.688C201.857 219.951 203.188 215.557 203.188 211.062C203.188 205.036 200.796 199.258 196.539 194.996C192.283 190.735 186.51 188.341 180.49 188.341" fill="white"/>
</g>
<defs>
<clipPath id="clip0">
<rect width="256" height="256" fill="white"/>
</clipPath>
</defs>
</svg>
