<svg width="256" height="256" viewBox="0 0 256 256" fill="none" xmlns="http://www.w3.org/2000/svg">
<path d="M22.1671 207.246V230.16L11 238V175.589L27.5997 164.132C32.1269 160.815 35.7487 162.323 35.7487 171.368V184.634C35.7487 193.377 32.1269 200.312 27.9016 203.327L22.1671 207.246ZM22.1671 194.282L23.0725 193.679C24.2798 193.076 24.2798 191.87 24.2798 190.362V181.317C24.2798 179.81 23.978 178.905 23.0725 179.81L22.1671 180.413V194.282Z" fill="white"/>
<path d="M51.443 147.248V193.98L58.6865 188.855V204.231L40.2759 217.196V155.087L51.443 147.248Z" fill="white"/>
<path d="M77.0974 184.031L72.872 187.046L72.2684 195.187L62.6104 201.82L68.043 135.49L82.2282 125.54L88.2645 183.73L77.3992 191.267L77.0974 184.031ZM74.0793 172.273L76.192 170.765L74.9847 155.087L74.0793 172.273Z" fill="white"/>
<path d="M103.657 110.766L107.882 136.092V107.751L117.238 101.118V163.529L107.279 170.765L102.148 143.63V174.383L92.4897 181.016V118.605L103.657 110.766Z" fill="white"/>
<path d="M135.951 143.027L131.726 146.042L131.122 154.182L121.464 160.815L126.897 94.4852L141.082 84.5356L147.118 142.725L136.253 150.263L135.951 143.027ZM132.933 131.268L135.045 129.761L133.838 114.083L132.933 131.268Z" fill="white"/>
<path d="M162.812 131.871L151.645 139.71V77.6008L169.15 65.2393C172.772 62.5258 176.092 63.7318 176.092 71.8723V78.2038C176.092 84.8368 173.979 89.0578 172.169 91.7714C174.281 91.4699 176.394 93.2789 176.394 97.8014V117.7C176.394 119.509 176.696 121.017 176.998 121.62V121.921L165.831 129.76C165.529 129.157 164.925 127.951 164.925 126.142V108.052C164.925 106.846 164.925 105.942 163.718 106.545L162.812 107.148V131.871ZM162.812 94.1834L163.718 93.5804C164.623 92.9774 164.925 92.0729 164.925 90.5654V82.1233C164.925 80.6158 164.623 80.0128 163.718 80.6158L162.812 81.2188V94.1834Z" fill="white"/>
<path d="M191.182 70.0636V61.9231C191.182 54.687 194.502 46.5465 201.444 41.7225L202.953 40.5165C210.197 35.391 213.818 37.803 213.818 45.9435V51.3705C213.818 56.4961 211.706 60.7171 210.8 62.2246C212.611 61.9231 214.422 63.7321 214.422 68.5561V81.5206C214.422 91.4701 209.895 99.9122 202.953 104.736L201.142 105.942C192.691 111.671 190.277 106.244 190.277 99.9122V89.0581L200.84 81.5206V89.9626C200.84 90.8671 201.142 91.1686 201.746 90.8671C202.349 90.2641 202.651 89.6611 202.651 88.7566V79.7116C202.651 78.5056 202.349 78.2041 201.746 78.8071L196.615 82.4251V67.9531L201.444 64.6366C202.048 64.0336 202.651 63.4306 202.651 62.2246V54.9886C202.651 53.7825 202.349 53.481 201.746 54.084C201.444 54.3855 201.142 55.2901 201.142 56.1946V62.8276L191.182 70.0636Z" fill="white"/>
<path d="M219.251 29.9639L235.248 18.8084C240.077 15.4919 244 16.3964 244 26.9489V60.114C244 70.6665 240.077 77.601 235.549 80.9175L219.251 92.3746V29.9639ZM230.419 70.968L231.626 70.365C232.833 69.762 232.833 68.556 232.833 66.144V36.8984C232.833 35.0894 232.531 34.1849 231.626 34.7879L230.419 35.3909V70.968Z" fill="white"/>
</svg>
