<svg width="256" height="256" viewBox="0 0 256 256" fill="none" xmlns="http://www.w3.org/2000/svg">
<g clip-path="url(#clip0)">
<path d="M357.761 -106.3H-101.061C-103.919 -106.3 -106.3 -103.919 -106.3 -101.061V357.761C-106.3 360.619 -103.919 363 -101.061 363H357.761C360.619 363 363 360.619 363 357.761V-101.061C363 -103.919 360.619 -106.3 357.761 -106.3ZM-95.8225 -15.7164C-88.6787 -12.9542 -77.5344 -10.9539 -64.1993 -17.1452C-63.723 -17.3357 -63.342 -17.6214 -62.961 -17.9072C-62.8658 -18.0024 -50.8642 -28.2895 -37.0528 -24.1937C-30.5758 -22.2887 -27.5278 -20.2885 -24.575 -18.3834C-20.384 -15.6212 -16.3834 -12.9542 -6.09637 -12.9542C1.71419 -12.9542 6.28623 -15.8117 10.382 -18.3834C14.954 -21.241 19.2403 -24.0032 29.9084 -24.0032C39.8145 -24.0032 43.1482 -21.622 46.863 -18.955C50.673 -16.1927 55.0546 -12.9542 64.4844 -12.9542C74.1047 -12.9542 79.2482 -16.2879 83.8203 -19.336C88.2018 -22.1935 92.0118 -24.67 100.394 -24.67C108.395 -24.67 111.538 -22.5745 115.443 -20.0027C120.016 -16.9547 125.064 -13.6209 136.303 -13.6209C148.114 -13.6209 156.211 -17.6214 162.688 -20.86C167.641 -23.3365 171.546 -25.2415 176.118 -25.2415C187.548 -25.2415 190.882 -22.9555 194.692 -20.2885C198.502 -17.7167 202.788 -14.8592 212.313 -14.1924C223.934 -13.4304 229.935 -18.2882 234.793 -22.1935C238.507 -25.1462 241.365 -27.5275 246.794 -27.718C256.7 -28.099 260.605 -25.051 265.177 -21.7172C269.559 -18.4787 274.417 -14.8592 283.466 -14.1924C294.134 -13.4304 299.658 -17.1452 304.611 -20.3837C308.517 -22.9555 311.565 -25.051 317.375 -25.1462C327.09 -25.432 330.424 -22.9555 334.425 -19.9075C338.425 -16.8594 343.093 -13.5257 352.522 -13.0494V15.24C346.712 14.859 344.045 13.0493 340.807 10.5727C336.33 7.14372 330.329 2.66694 317.089 3.1432C308.326 3.42895 303.087 6.85797 298.896 9.71549C294.705 12.4778 291.371 14.7638 284.323 14.1923C278.322 13.716 275.274 11.5253 271.369 8.66773C266.321 4.95296 260.129 0.285677 246.508 0.666679C237.555 0.952431 232.411 5.14346 228.22 8.47723C223.934 11.9063 220.6 14.6685 212.98 14.1923C206.313 13.716 203.741 12.0015 200.502 9.81075C195.835 6.66747 190.596 3.1432 176.023 3.1432C168.974 3.1432 163.355 5.90546 157.925 8.66773C151.829 11.7158 145.638 14.7638 136.208 14.7638C128.112 14.7638 125.064 12.6683 121.063 10.0965C116.586 7.14372 111.443 3.7147 100.203 3.7147C88.678 3.7147 82.6772 7.61998 77.9147 10.668C73.9142 13.2398 70.7709 15.3353 64.1986 15.3353C58.1026 15.3353 55.9118 13.716 52.6733 11.3348C48.2918 8.19148 42.9577 4.2862 29.6226 4.2862C16.0018 4.2862 9.71525 8.28673 4.57172 11.5253C0.856941 13.8113 -1.52433 15.3353 -6.28687 15.3353C-13.4307 15.3353 -15.4309 14.0018 -19.0505 11.6205C-22.289 9.52499 -26.3847 6.85797 -34.3858 4.47671C-51.6262 -0.571578 -66.1995 9.81074 -69.438 12.3825C-82.1064 18.0023 -92.0125 13.8113 -96.1082 11.5253V-15.7164H-95.8225ZM-64.2945 21.7171C-63.8183 21.5266 -63.4373 21.2408 -63.0563 20.9551C-62.961 20.8598 -50.8642 10.5727 -37.1481 14.6685C-30.671 16.5735 -27.623 18.5738 -24.6702 20.4788C-20.4792 23.2411 -16.4787 25.9081 -6.19161 25.9081C1.61894 25.9081 6.19097 23.0506 10.2868 20.4788C14.8588 17.6213 19.1451 14.859 29.8131 14.859C39.7192 14.859 43.053 17.2403 46.7677 19.9073C50.5778 22.6696 54.9593 25.8129 64.3891 25.8129C74.0094 25.8129 79.153 22.4791 83.725 19.4311C88.1065 16.5735 91.9166 14.097 100.299 14.097C108.3 14.097 111.443 16.1925 115.348 18.7643C119.825 21.7171 124.969 25.1461 136.208 25.1461C148.019 25.1461 156.115 21.1456 162.593 17.907C167.546 15.4305 171.451 13.5255 176.023 13.5255C187.453 13.5255 190.787 15.8115 194.597 18.4786C198.407 21.0503 202.693 23.9078 212.218 24.5746C223.839 25.3366 229.84 20.4788 234.697 16.5735C238.412 13.6208 241.27 11.2395 246.699 11.049C256.605 10.5727 260.51 13.716 265.082 17.0498C269.464 20.2883 274.322 23.9078 283.37 24.5746C294.038 25.4318 299.563 21.6218 304.516 18.2881C308.421 15.7163 311.469 13.6208 317.28 13.5255C326.995 13.1445 330.329 15.7163 334.329 18.7643C338.33 21.8123 342.997 25.1461 352.427 25.6223V53.9118C346.617 53.5308 343.95 51.721 340.711 49.2445C336.234 45.8155 330.234 41.434 316.994 41.815C308.231 42.1007 302.992 45.5297 298.801 48.3873C294.61 51.1495 291.276 53.5308 284.228 52.864C278.132 52.3878 275.179 50.197 271.274 47.3395C266.225 43.6247 260.034 39.0527 246.413 39.3384C237.46 39.6242 232.316 43.8152 228.125 47.149C223.839 50.578 220.505 53.3403 212.885 52.864C206.217 52.3878 203.646 50.6733 200.407 48.4825C195.74 45.3392 190.501 41.815 175.928 41.815C168.879 41.815 163.259 44.5772 157.83 47.3395C151.734 50.3875 145.543 53.4355 136.113 53.4355C128.017 53.4355 124.969 51.34 120.968 48.7683C116.491 45.8155 111.348 42.3865 100.108 42.3865C88.5828 42.3865 82.582 46.2917 77.8195 49.3398C73.8189 51.9115 70.6757 54.007 64.1034 54.007C58.0073 54.007 55.8166 52.3878 52.578 50.0065C48.1965 46.8633 42.8625 42.958 29.5274 42.958C15.9065 42.958 9.62 46.9585 4.47646 50.197C0.761688 52.483 -1.61958 54.007 -6.38211 54.007C-13.5259 54.007 -15.5262 52.6735 -19.1457 50.2923C-22.3842 48.1968 -26.48 45.5297 -34.4811 43.1485C-51.7214 38.1002 -66.2948 48.4825 -69.5333 51.0543C-82.2016 56.6741 -92.1077 52.483 -96.2035 50.197V22.8601C-88.6787 25.8129 -77.5344 27.8131 -64.2945 21.7171ZM-64.2945 60.3888C-63.8183 60.1983 -63.4373 59.9126 -63.0563 59.6268C-62.961 59.5316 -50.8642 49.2445 -37.1481 53.3403C-30.671 55.2453 -27.623 57.2456 -24.6702 59.1506C-20.4792 61.9128 -16.4787 64.5799 -6.19161 64.5799C1.61894 64.5799 6.19097 61.7223 10.2868 59.1506C14.8588 56.2931 19.1451 53.5308 29.8131 53.5308C39.7192 53.5308 43.053 55.9121 46.7677 58.5791C50.5778 61.3414 54.9593 64.4846 64.3891 64.4846C74.0094 64.4846 79.153 61.1509 83.725 58.1028C88.1065 55.2453 91.9166 52.7688 100.299 52.7688C108.3 52.7688 111.443 54.8643 115.348 57.4361C119.825 60.3888 124.969 63.8179 136.208 63.8179C148.019 63.8179 156.115 59.8173 162.593 56.5788C167.546 54.1023 171.451 52.1973 176.023 52.1973C187.453 52.1973 190.787 54.4833 194.597 57.0551C198.407 59.6268 202.693 62.4844 212.218 63.1511C223.839 63.9131 229.84 59.0553 234.697 55.1501C238.412 52.1973 241.27 49.816 246.699 49.6255C256.605 49.1493 260.51 52.2925 265.082 55.6263C269.464 58.8648 274.417 62.3891 283.37 63.1511C294.038 63.9131 299.563 60.1983 304.516 56.8646C308.421 54.2928 311.469 52.1973 317.28 52.102C326.995 51.721 330.329 54.2928 334.329 57.3408C338.33 60.3888 342.997 63.7226 352.427 64.1989V92.4883C346.617 92.1073 343.95 90.2975 340.711 87.821C336.234 84.392 330.234 80.1057 316.994 80.3915C308.231 80.6772 302.992 84.1062 298.801 86.9638C294.61 89.8213 291.276 92.1073 284.228 91.5358C278.132 91.0595 275.179 88.8688 271.274 86.0113C266.225 82.2965 259.939 77.7245 246.413 78.0102C237.46 78.296 232.316 82.487 228.125 85.8208C223.839 89.345 220.314 92.0121 212.885 91.5358C206.217 91.0595 203.646 89.345 200.407 87.1543C195.74 84.011 190.501 80.4867 175.928 80.4867C168.879 80.4867 163.259 83.249 157.83 86.0113C151.734 89.0593 145.543 92.1073 136.113 92.1073C128.017 92.1073 124.969 90.0118 120.968 87.44C116.491 84.4872 111.348 81.0582 100.108 81.0582C88.5828 81.0582 82.582 84.9635 77.8195 88.0115C73.8189 90.5833 70.6757 92.6788 64.1034 92.6788C58.0073 92.6788 55.8166 91.0596 52.578 88.6783C48.1965 85.535 42.8625 81.6297 29.5274 81.6297C15.9065 81.6297 9.62 85.6303 4.47646 88.8688C0.761688 91.1548 -1.61958 92.6788 -6.38211 92.6788C-13.5259 92.6788 -15.5262 91.3453 -19.1457 88.964C-22.3842 86.8685 -26.48 84.2015 -34.4811 81.8202C-51.8167 76.772 -66.2948 87.1543 -69.5333 89.726C-82.2016 95.3458 -92.1077 91.1548 -96.2035 88.8688V61.5318C-88.6787 64.5799 -77.5344 66.5801 -64.2945 60.3888ZM-64.2945 99.1559C-63.8183 98.9654 -63.4373 98.6796 -63.0563 98.3938C-62.961 98.2986 -50.7689 88.0115 -37.0528 92.1073C-30.5758 94.0123 -27.5278 96.0126 -24.575 98.0128C-20.384 100.775 -16.3834 103.442 -6.09637 103.442C1.71419 103.442 6.28623 100.585 10.382 98.0128C14.954 95.1553 19.2403 92.3931 29.9084 92.3931C39.8145 92.3931 43.1482 94.7743 46.863 97.4413C50.673 100.204 55.0546 103.442 64.4844 103.442C74.1047 103.442 79.2482 100.108 83.8203 97.0603C88.2018 94.2028 92.0118 91.7263 100.394 91.7263C108.395 91.7263 111.538 93.8218 115.443 96.3936C119.92 99.3464 125.064 102.775 136.303 102.775C148.114 102.775 156.211 98.7749 162.688 95.5363C167.641 93.0598 171.546 91.1548 176.118 91.1548C187.548 91.1548 190.882 93.4408 194.692 96.0126C198.502 98.5843 202.788 101.442 212.313 102.109C224.029 102.871 229.935 98.0128 234.793 94.1076C238.507 91.1548 241.365 88.7735 246.794 88.583C256.7 88.3925 260.605 91.1548 265.177 94.5838C269.559 97.8223 274.512 101.347 283.466 102.109C294.038 102.871 299.658 99.1559 304.611 95.8221C308.517 93.2503 311.565 91.1548 317.375 91.0596C327.09 90.7738 330.424 93.2503 334.425 96.2983C338.33 99.3464 342.997 102.68 352.427 103.156V131.446C346.617 131.065 343.95 129.255 340.711 126.779C336.234 123.254 330.138 118.873 316.994 119.349C308.231 119.635 302.992 123.064 298.801 125.921C294.61 128.779 291.276 131.065 284.228 130.398C278.132 129.922 275.179 127.731 271.274 124.874C266.225 121.159 260.034 116.491 246.413 116.872C237.46 117.158 232.316 121.349 228.125 124.683C223.839 128.112 220.505 130.874 212.885 130.398C206.122 129.922 203.646 128.207 200.407 126.017C195.74 122.873 190.501 119.349 175.928 119.349C168.879 119.349 163.259 122.111 157.83 124.874C151.734 127.922 145.543 130.97 136.113 130.97C128.017 130.97 124.969 128.969 120.968 126.302C116.491 123.35 111.348 119.921 100.108 119.921C88.5828 119.921 82.582 123.826 77.8195 126.874C73.8189 129.446 70.6757 131.541 64.1034 131.541C58.0073 131.541 55.8166 129.922 52.578 127.541C48.1965 124.397 42.8625 120.492 29.5274 120.492C15.9065 120.492 9.62 124.493 4.47646 127.731C0.761688 130.017 -1.61958 131.541 -6.38211 131.541C-13.5259 131.541 -15.5262 130.208 -19.1457 127.826C-22.3842 125.731 -26.48 123.064 -34.4811 120.683C-51.8167 115.634 -66.2948 126.017 -69.5333 128.588C-82.2016 134.208 -92.1077 130.017 -96.2035 127.731V100.394C-88.6787 103.347 -77.5344 105.252 -64.2945 99.1559ZM-64.2945 137.923C-63.8183 137.732 -63.4373 137.447 -63.0563 137.161C-62.961 137.066 -50.6737 126.969 -37.0528 130.874C-30.5758 132.779 -27.5278 134.78 -24.575 136.78C-20.384 139.542 -16.3834 142.209 -6.09637 142.209C1.71419 142.209 6.28623 139.352 10.382 136.78C14.954 133.922 19.2403 131.16 29.9084 131.16C39.8145 131.16 43.1482 133.541 46.863 136.208C50.673 138.971 55.0546 142.209 64.4844 142.209C74.1047 142.209 79.2482 138.875 83.8203 135.827C88.2018 132.97 92.0118 130.589 100.394 130.589C108.395 130.589 111.538 132.589 115.443 135.256C119.92 138.209 125.064 141.638 136.303 141.638C148.114 141.638 156.211 137.637 162.688 134.399C167.641 131.922 171.546 130.017 176.118 130.017C187.548 130.017 190.882 132.303 194.787 134.875C198.597 137.447 202.788 140.304 212.409 140.971C224.124 141.828 230.03 136.875 234.888 132.97C238.603 130.017 241.46 127.636 246.889 127.445C256.795 127.16 260.701 130.112 265.273 133.446C269.654 136.685 274.512 140.304 283.561 140.971C294.134 141.733 299.753 138.018 304.707 134.78C308.612 132.208 311.66 130.112 317.47 130.017C327.186 129.541 330.519 132.208 334.52 135.256C338.425 138.304 343.188 141.638 352.522 142.114V170.403C346.712 170.022 344.045 168.213 340.807 165.736C336.33 162.307 330.805 158.021 317.089 158.306C308.326 158.497 303.087 162.021 298.896 164.879C294.705 167.736 291.371 169.927 284.323 169.451C278.227 168.975 275.274 166.784 271.369 163.926C266.321 160.212 260.129 155.544 246.508 155.925C237.555 156.211 232.411 160.402 228.22 163.736C223.934 167.165 220.6 169.927 212.98 169.451C206.313 168.975 203.741 167.26 200.502 165.069C195.835 161.926 190.596 158.402 176.023 158.402C168.974 158.402 163.355 161.164 157.925 163.926C151.829 166.974 145.638 170.022 136.208 170.022C128.112 170.022 125.064 168.022 121.063 165.355C116.586 162.402 111.443 158.973 100.203 158.973C88.678 158.973 82.6772 162.879 77.9147 165.927C73.9142 168.498 70.7709 170.594 64.1986 170.594C58.1026 170.594 55.9118 168.975 52.6733 166.593C48.2918 163.45 42.9577 159.545 29.6226 159.545C16.0018 159.545 9.71525 163.545 4.57172 166.784C0.856941 169.07 -1.52433 170.594 -6.28687 170.594C-13.4307 170.594 -15.4309 169.26 -19.0505 166.879C-22.289 164.784 -26.3847 162.117 -34.3858 159.735C-51.6262 154.687 -66.1995 165.069 -69.438 167.641C-82.1064 173.166 -92.0125 169.07 -96.1082 166.784V139.447C-88.6787 142.019 -77.5344 144.019 -64.2945 137.923ZM-64.2945 176.595C-63.8183 176.404 -63.4373 176.118 -63.0563 175.833C-62.961 175.737 -50.9594 165.546 -37.1481 169.546C-30.671 171.451 -27.623 173.451 -24.6702 175.356C-20.4792 178.119 -16.4787 180.786 -6.19161 180.786C1.61894 180.786 6.19097 177.928 10.2868 175.356C14.8588 172.499 19.1451 169.737 29.8131 169.737C39.7192 169.737 43.053 172.118 46.7677 174.785C50.5778 177.547 54.9593 180.69 64.3891 180.69C74.0094 180.69 79.153 177.357 83.725 174.309C88.1065 171.451 91.9166 168.975 100.299 168.975C108.3 168.975 111.443 170.975 115.348 173.642C119.825 176.595 124.969 180.024 136.208 180.024C148.019 180.024 156.115 176.023 162.593 172.785C167.546 170.308 171.451 168.403 176.023 168.403C187.453 168.403 190.787 170.689 194.597 173.261C198.407 175.833 202.693 178.69 212.218 179.357C223.934 180.214 229.84 175.261 234.697 171.356C238.412 168.403 241.27 166.022 246.699 165.831C256.605 165.45 260.51 168.498 265.082 171.832C269.464 175.071 274.322 178.69 283.37 179.357C293.943 180.119 299.563 176.404 304.516 173.166C308.421 170.594 311.469 168.498 317.28 168.403C327.186 168.117 330.329 170.594 334.329 173.642C338.235 176.69 342.902 180.024 352.332 180.5V208.98C346.522 208.599 343.855 206.789 340.616 204.313C336.139 200.884 330.138 196.407 316.899 196.883C308.136 197.169 302.897 200.598 298.706 203.455C294.515 206.218 291.181 208.504 284.132 207.932C278.132 207.456 275.084 205.265 271.178 202.408C266.13 198.693 259.939 194.026 246.318 194.407C237.364 194.692 232.221 198.883 228.03 202.217C223.743 205.646 220.41 208.408 212.79 207.932C206.122 207.456 203.55 205.741 200.312 203.551C195.645 200.407 190.406 196.883 175.832 196.883C168.784 196.883 163.164 199.645 157.735 202.408C151.639 205.456 145.447 208.504 136.018 208.504C127.921 208.504 124.873 206.503 120.873 203.836C116.396 200.884 111.252 197.455 100.013 197.455C88.4875 197.455 82.4867 201.36 77.7242 204.408C73.7237 206.98 70.5804 209.075 64.0081 209.075C57.9121 209.075 55.7213 207.456 52.4828 205.075C48.1013 201.931 42.7672 198.026 29.4321 198.026C15.8113 198.026 9.52475 202.027 4.38121 205.265C0.666435 207.551 -1.71483 209.075 -6.47736 209.075C-13.6212 209.075 -15.6214 207.742 -19.241 205.36C-22.4795 203.265 -26.5752 200.598 -34.5763 198.217C-51.8167 193.168 -66.39 203.551 -69.6285 206.122C-82.2969 211.742 -92.203 207.646 -96.2987 205.265V177.928C-88.6787 180.786 -77.5344 182.786 -64.2945 176.595ZM-64.2945 215.362C-63.8183 215.171 -63.4373 214.885 -63.0563 214.6C-62.961 214.504 -50.9594 204.217 -37.1481 208.313C-30.671 210.218 -27.623 212.218 -24.6702 214.123C-20.4792 216.886 -16.4787 219.553 -6.19161 219.553C1.61894 219.553 6.19097 216.695 10.2868 214.123C14.8588 211.266 19.1451 208.504 29.8131 208.504C39.7192 208.504 43.053 210.885 46.7677 213.552C50.5778 216.314 54.9593 219.457 64.3891 219.457C74.0094 219.457 79.153 216.124 83.725 213.076C88.1065 210.218 91.9166 207.742 100.299 207.742C108.3 207.742 111.443 209.742 115.348 212.409C119.825 215.362 124.969 218.791 136.208 218.791C148.019 218.791 156.115 214.79 162.593 211.552C167.546 209.075 171.451 207.17 176.023 207.17C187.453 207.17 190.787 209.456 194.597 212.123C198.407 214.695 202.693 217.552 212.218 218.219C223.839 218.981 229.84 214.123 234.697 210.218C238.412 207.265 241.27 204.884 246.699 204.694C256.605 204.313 260.51 207.361 265.082 210.694C269.464 213.933 274.322 217.552 283.37 218.219C294.038 218.981 299.563 215.266 304.516 211.933C308.421 209.361 311.469 207.265 317.28 207.17C326.995 206.884 330.329 209.361 334.329 212.409C338.33 215.457 342.997 218.791 352.427 219.267V247.556C346.617 247.175 343.95 245.366 340.711 242.889C336.234 239.46 330.234 235.079 316.994 235.46C308.231 235.745 302.992 239.174 298.801 242.032C294.61 244.794 291.276 247.08 284.228 246.509C278.227 246.032 275.179 243.842 271.274 240.984C266.225 237.269 260.034 232.602 246.413 232.983C237.46 233.269 232.316 237.46 228.125 240.794C223.839 244.223 220.505 246.985 212.885 246.509C206.217 246.032 203.646 244.318 200.407 242.127C195.74 238.984 190.501 235.46 175.928 235.46C168.879 235.46 163.259 238.222 157.83 240.984C151.734 244.032 145.543 247.08 136.113 247.08C128.017 247.08 124.969 245.08 120.968 242.413C116.491 239.46 111.348 236.031 100.108 236.031C88.5828 236.031 82.582 239.936 77.8195 242.984C73.8189 245.556 70.6757 247.652 64.1034 247.652C58.0073 247.652 55.8166 246.032 52.578 243.651C48.1965 240.508 42.8625 236.603 29.5274 236.603C15.9065 236.603 9.62 240.603 4.47646 243.842C0.761688 246.128 -1.61958 247.652 -6.38211 247.652C-13.5259 247.652 -15.5262 246.318 -19.1457 243.937C-22.3842 241.841 -26.48 239.174 -34.4811 236.793C-51.7214 231.745 -66.2948 242.127 -69.5333 244.699C-82.2016 250.319 -92.1077 246.128 -96.2035 243.842V216.505C-88.6787 219.457 -77.5344 221.458 -64.2945 215.362ZM-95.8225 255.462C-88.6787 258.224 -77.5344 260.225 -64.1993 254.129C-63.723 253.938 -63.342 253.652 -62.961 253.367C-62.8658 253.271 -50.8642 242.984 -37.0528 247.08C-30.5758 248.985 -27.5278 250.985 -24.575 252.89C-20.384 255.653 -16.3834 258.32 -6.09637 258.32C1.71419 258.32 6.28623 255.462 10.382 252.89C14.954 250.033 19.2403 247.271 29.9084 247.271C39.8145 247.271 43.1482 249.652 46.863 252.319C50.673 255.081 55.0546 258.224 64.4844 258.224C74.1047 258.224 79.2482 254.891 83.8203 251.843C88.2018 248.985 92.0118 246.509 100.394 246.509C108.395 246.509 111.538 248.604 115.443 251.176C120.016 254.129 125.064 257.558 136.303 257.558C148.114 257.558 156.211 253.557 162.688 250.319C167.641 247.842 171.546 245.937 176.118 245.937C187.548 245.937 190.882 248.223 194.692 250.89C198.502 253.462 202.788 256.319 212.313 256.986C223.934 257.653 229.935 252.89 234.793 248.985C238.507 246.032 241.365 243.651 246.794 243.461C256.7 243.08 260.605 246.128 265.177 249.461C269.559 252.7 274.417 256.319 283.466 256.986C294.134 257.748 299.658 254.033 304.611 250.7C308.517 248.128 311.565 246.032 317.375 245.937C327.09 245.651 330.424 248.128 334.425 251.176C338.425 254.224 343.093 257.558 352.522 258.034V286.323C346.712 285.942 344.045 284.133 340.807 281.656C336.33 278.227 330.329 273.846 317.089 274.227C308.326 274.512 303.087 277.941 298.896 280.799C294.705 283.561 291.371 285.847 284.323 285.276C278.322 284.799 275.274 282.609 271.369 279.751C266.321 276.036 260.129 271.369 246.508 271.75C237.555 272.036 232.411 276.227 228.22 279.561C223.934 282.99 220.6 285.752 212.98 285.276C206.313 284.799 203.741 283.085 200.502 280.894C195.835 277.751 190.596 274.227 176.023 274.227C168.974 274.227 163.355 276.989 157.925 279.751C151.829 282.799 145.638 285.847 136.208 285.847C128.112 285.847 125.064 283.847 121.063 281.18C116.586 278.227 111.443 274.798 100.203 274.798C88.678 274.798 82.6772 278.703 77.9147 281.751C73.9142 284.323 70.7709 286.419 64.1986 286.419C58.1026 286.419 55.9118 284.799 52.6733 282.418C48.2918 279.275 42.9577 275.37 29.6226 275.37C16.0018 275.37 9.71525 279.37 4.57172 282.609C0.856941 284.895 -1.52433 286.419 -6.28687 286.419C-13.4307 286.419 -15.4309 285.085 -19.0505 282.704C-22.289 280.608 -26.3847 277.941 -34.3858 275.56C-51.6262 270.512 -66.1995 280.894 -69.438 283.466C-82.1064 289.086 -92.0125 284.99 -96.1082 282.609V255.462H-95.8225ZM352.522 -62.1988C346.712 -62.5798 344.045 -64.3895 340.807 -66.866C336.33 -70.2951 330.329 -74.6766 317.089 -74.2956C308.326 -74.0098 303.087 -70.5808 298.896 -67.7233C294.705 -64.961 291.371 -62.5798 284.323 -63.2465C278.322 -63.7228 275.274 -65.9135 271.369 -68.771C266.321 -72.4858 260.129 -77.0579 246.508 -76.7721C237.555 -76.4864 232.411 -72.2953 228.22 -68.9615C223.934 -65.5325 220.6 -62.7703 212.98 -63.2465C206.503 -63.7228 203.55 -65.5325 199.836 -67.9138C194.311 -71.4381 187.834 -75.4386 171.832 -74.8671C164.688 -74.5813 160.021 -71.6286 155.449 -68.771C150.305 -65.6278 145.543 -62.5798 136.303 -62.5798C128.207 -62.5798 125.159 -64.6753 121.159 -67.247C116.682 -70.1998 111.538 -73.6288 100.299 -73.6288C88.7733 -73.6288 82.7725 -69.7236 78.01 -66.6755C74.0094 -64.1038 70.8662 -62.0083 64.2939 -62.0083C58.1978 -62.0083 56.0071 -63.6275 52.7685 -66.0088C48.387 -69.152 43.053 -73.0573 29.7179 -73.0573C16.0971 -73.0573 9.8105 -69.0568 4.66696 -65.8183C0.952186 -63.5323 -1.42908 -62.0083 -6.19161 -62.0083C-13.3354 -62.0083 -15.3357 -63.3418 -18.9552 -65.723C-22.1937 -67.8185 -26.2895 -70.4856 -34.2906 -72.8668C-51.5309 -77.9151 -66.1043 -67.5328 -69.3428 -64.961C-82.0111 -59.3412 -91.9172 -63.437 -96.013 -65.8183V-95.8222H352.427V-62.1988H352.522ZM-64.2945 -55.817C-63.8183 -56.0075 -63.4373 -56.2932 -63.0563 -56.579C-62.961 -56.6742 -50.9594 -66.9613 -37.1481 -62.8655C-30.671 -60.9605 -27.623 -58.9602 -24.6702 -57.0552C-20.4792 -54.2929 -16.4787 -51.6259 -6.19161 -51.6259C1.61894 -51.6259 6.19097 -54.4834 10.2868 -57.0552C14.8588 -59.9127 19.1451 -62.675 29.8131 -62.675C39.7192 -62.675 43.053 -60.2937 46.7677 -57.6267C50.5778 -54.8645 54.9593 -51.6259 64.3891 -51.6259C74.0094 -51.6259 79.153 -54.9597 83.725 -58.0077C88.1065 -60.8652 91.9166 -63.3418 100.299 -63.3418C108.3 -63.3418 111.443 -61.2462 115.348 -58.6745C119.825 -55.7217 124.969 -52.2927 136.208 -52.2927C148.4 -52.2927 155.353 -56.579 160.878 -60.1032C164.879 -62.5798 167.831 -64.3895 172.118 -64.58C184.976 -64.961 189.453 -62.1987 194.121 -59.246C198.312 -56.579 203.074 -53.5309 212.123 -52.9594C223.743 -52.1974 229.744 -57.0552 234.602 -60.9605C238.317 -63.9133 241.174 -66.2945 246.604 -66.485C256.51 -66.866 260.415 -63.818 264.987 -60.4842C269.369 -57.2457 274.226 -53.6262 283.275 -52.9594C293.943 -52.1974 299.468 -55.9122 304.421 -59.1507C308.326 -61.7225 311.374 -63.818 317.184 -63.9133C326.9 -64.199 330.234 -61.7225 334.234 -58.6745C338.235 -55.6265 342.902 -52.2927 352.332 -51.8164V-23.4317C346.522 -23.8127 343.855 -25.6225 340.616 -28.099C336.139 -31.528 330.138 -35.9096 316.899 -35.5286C308.136 -35.2428 302.897 -31.8138 298.706 -28.9563C294.515 -26.194 291.181 -23.908 284.132 -24.4795C278.132 -24.9557 275.084 -27.1465 271.178 -30.004C266.13 -33.7188 259.939 -38.2908 246.318 -38.0051C237.364 -37.7193 232.221 -33.5283 228.03 -30.1945C223.743 -26.7655 220.41 -24.0032 212.79 -24.4795C206.122 -24.9557 203.55 -26.6703 200.312 -28.861C195.645 -32.0043 190.406 -35.5286 175.832 -35.5286C168.784 -35.5286 163.164 -32.7663 157.735 -30.004C151.639 -26.956 145.447 -23.908 136.018 -23.908C127.921 -23.908 124.873 -26.0035 120.873 -28.5753C116.396 -31.528 111.252 -34.9571 100.013 -34.9571C88.4875 -34.9571 82.4867 -31.0518 77.7242 -28.0038C73.7237 -25.432 70.5804 -23.3365 64.0081 -23.3365C57.9121 -23.3365 55.7213 -24.9557 52.4828 -27.337C48.1013 -30.4803 42.7672 -34.3856 29.4321 -34.3856C15.8113 -34.3856 9.52475 -30.385 4.38121 -27.1465C0.666435 -24.8605 -1.71483 -23.3365 -6.47736 -23.3365C-13.6212 -23.3365 -15.6214 -24.67 -19.241 -27.0513C-22.4795 -29.1468 -26.5752 -31.8138 -34.5763 -34.1951C-51.8167 -39.2433 -66.39 -28.861 -69.6285 -26.2893C-82.2969 -20.6695 -92.203 -24.8605 -96.2987 -27.1465V-54.3882C-88.6787 -51.6259 -77.5344 -49.6257 -64.2945 -55.817ZM-95.8225 294.229C-88.6787 296.991 -77.5344 298.992 -64.1993 292.896C-63.723 292.705 -63.342 292.419 -62.961 292.134C-62.8658 292.038 -50.7689 281.751 -37.0528 285.847C-30.5758 287.752 -27.5278 289.752 -24.575 291.657C-20.384 294.42 -16.3834 297.087 -6.09637 297.087C1.71419 297.087 6.28623 294.229 10.382 291.657C14.954 288.8 19.2403 286.038 29.9084 286.038C39.8145 286.038 43.1482 288.419 46.863 291.086C50.673 293.848 55.0546 296.991 64.4844 296.991C74.1047 296.991 79.2482 293.658 83.8203 290.61C88.2018 287.752 92.0118 285.276 100.394 285.276C108.395 285.276 111.538 287.276 115.443 289.943C119.92 292.896 125.064 296.325 136.303 296.325C148.114 296.325 156.211 292.324 162.688 289.086C167.641 286.609 171.546 284.704 176.118 284.704C187.548 284.704 190.882 286.99 194.692 289.657C198.502 292.229 202.788 295.086 212.313 295.753C223.934 296.515 229.935 291.657 234.793 287.752C238.507 284.799 241.365 282.418 246.794 282.228C256.7 281.847 260.605 284.895 265.177 288.228C269.559 291.467 274.417 295.086 283.466 295.753C294.134 296.61 299.658 292.8 304.611 289.562C308.517 286.99 311.565 284.895 317.375 284.799C327.09 284.514 330.424 286.99 334.425 290.038C338.425 293.086 343.093 296.42 352.522 296.896V325.186C346.712 324.805 344.045 322.995 340.807 320.518C336.33 317.089 330.329 312.613 317.089 313.089C308.326 313.375 303.087 316.804 298.896 319.661C294.705 322.423 291.371 324.709 284.323 324.138C278.227 323.662 275.274 321.471 271.369 318.613C266.321 314.899 260.129 310.231 246.508 310.612C237.555 310.898 232.411 315.089 228.22 318.423C223.934 321.852 220.6 324.614 212.98 324.138C206.313 323.662 203.741 321.947 200.502 319.756C195.835 316.613 190.596 313.089 176.023 313.089C168.974 313.089 163.355 315.851 157.925 318.613C151.829 321.661 145.638 324.709 136.208 324.709C128.112 324.709 125.064 322.709 121.063 320.042C116.586 317.089 111.443 313.66 100.203 313.66C88.678 313.66 82.6772 317.566 77.9147 320.614C73.9142 323.185 70.7709 325.281 64.1986 325.281C58.1026 325.281 55.9118 323.662 52.6733 321.28C48.2918 318.137 42.9577 314.232 29.6226 314.232C16.0018 314.232 9.71525 318.232 4.57172 321.471C0.856941 323.757 -1.52433 325.281 -6.28687 325.281C-13.4307 325.281 -15.4309 323.947 -19.0505 321.566C-22.289 319.471 -26.3847 316.804 -34.3858 314.422C-51.6262 309.374 -66.1995 319.756 -69.438 322.328C-82.1064 327.948 -92.0125 323.757 -96.1082 321.471V294.229H-95.8225ZM-95.8225 332.996C-88.6787 335.758 -77.5344 337.759 -64.1993 331.567C-63.723 331.377 -63.342 331.091 -62.961 330.805C-62.8658 330.71 -50.7689 320.423 -37.0528 324.519C-30.5758 326.424 -27.5278 328.424 -24.575 330.329C-20.384 333.091 -16.3834 335.758 -6.09637 335.758C1.71419 335.758 6.28623 332.901 10.382 330.329C14.954 327.472 19.2403 324.709 29.9084 324.709C39.8145 324.709 43.1482 327.091 46.863 329.758C50.673 332.52 55.0546 335.663 64.4844 335.663C74.1047 335.663 79.2482 332.329 83.8203 329.281C88.2018 326.424 92.0118 323.947 100.394 323.947C108.395 323.947 111.538 325.948 115.443 328.615C119.92 331.567 125.064 334.996 136.303 334.996C148.114 334.996 156.211 330.996 162.688 327.757C167.641 325.281 171.546 323.376 176.118 323.376C187.548 323.376 190.882 325.662 194.692 328.234C198.502 330.805 202.788 333.663 212.313 334.33C223.934 335.092 229.935 330.234 234.793 326.329C238.507 323.376 241.365 320.995 246.794 320.804C256.7 320.423 260.605 323.471 265.177 326.805C269.559 330.043 274.512 333.568 283.466 334.33C294.134 335.092 299.658 331.377 304.611 328.138C308.517 325.567 311.565 323.471 317.375 323.376C327.09 322.995 330.424 325.567 334.425 328.615C338.425 331.663 343.093 334.996 352.522 335.473V352.427H-95.8225V332.996Z" fill="white"/>
</g>
<defs>
<clipPath id="clip0">
<rect width="256" height="256" fill="white"/>
</clipPath>
</defs>
</svg>
