<svg width="256" height="256" viewBox="0 0 256 256" fill="none" xmlns="http://www.w3.org/2000/svg">
<path d="M253.142 0H2.85772C1.29896 0 0 1.29896 0 2.85772V13.9249V52.686V96.1754V113.737V147.303V186.116V226.02V252.779V253.142C0 254.701 1.29896 256 2.85772 256H253.142C254.701 256 256 254.701 256 253.142V252.779V213.965V186.064V159.305V113.685V85.2121V52.686V25.9793V2.85772C256 1.29896 254.701 0 253.142 0ZM57.3623 78.4055C57.674 78.4055 57.9858 78.4055 58.2975 78.3536L23.5892 110.88H7.32616L42.8658 80.0682C47.2823 79.3408 52.0625 78.7173 57.3623 78.4055ZM80.3799 78.4575L45.9834 110.88H31.9545L66.9227 78.1457C71.5989 78.0938 76.0674 78.1977 80.3799 78.4575ZM102.203 81.3672L70.8715 110.88H54.2448L87.9139 79.1849C92.7461 79.7045 97.5263 80.4839 102.203 81.3672ZM120.128 85.5239L93.2657 110.412C93.1098 110.516 93.1618 110.724 93.0578 110.88H79.1849L109.061 82.77C112.698 83.6014 116.387 84.5366 120.128 85.5239ZM136.911 90.2521L115.608 109.996C115.348 110.256 115.348 110.568 115.192 110.88H101.111L126.571 87.2904C129.896 88.2257 133.378 89.2129 136.911 90.2521ZM167.722 98.9292C169.645 99.4488 171.619 99.8644 173.594 100.28L161.695 110.412C161.539 110.516 161.591 110.724 161.435 110.88H146.887L161.331 98.0978C161.591 97.89 161.591 97.5263 161.747 97.2665C163.722 97.838 165.644 98.3576 167.722 98.9292ZM191.935 102.41L183.933 110.88H169.905L179.361 102.826C179.829 102.462 179.933 101.943 180.088 101.423C183.985 101.943 187.934 102.306 191.935 102.41ZM216.511 100.696L206.899 110.776C206.847 110.828 206.899 110.88 206.847 110.932H191.779L199.001 103.294C199.209 103.034 199.209 102.722 199.313 102.41C205.392 102.203 211.16 101.631 216.511 100.696ZM250.285 89.9923V91.9148L230.54 110.932H214.589L225.708 99.2929C225.864 99.137 225.812 98.8772 225.916 98.7213C236.983 95.9156 245.556 92.2785 250.285 89.9923ZM138.314 110.88H122.986L143.302 92.0706C147.251 93.2137 151.355 94.4088 155.616 95.6038L138.314 110.88ZM5.71545 104.8V97.1626C7.58596 94.9803 14.9121 87.7581 31.0193 82.822L5.71545 104.8ZM250.285 99.7605V110.88H238.698L250.285 99.7605ZM14.9641 156.603C15.068 156.759 15.016 156.967 15.1719 157.071L41.359 183.258H25.5117L5.71545 162.163V152.239C8.00162 153.434 11.1711 154.992 14.9641 156.603ZM45.7755 165.021L64.013 183.258H49.2048C49.1528 183.154 49.1528 182.998 49.0489 182.946L27.1224 161.02C32.682 162.682 38.9689 164.085 45.7755 165.021ZM69.2608 165.592L86.9267 183.206H72.1185L54.6604 165.8C56.531 165.904 58.3495 166.06 60.272 166.06C63.2336 166.06 66.2472 165.904 69.2608 165.592ZM88.3296 162.059C88.3816 162.059 88.4335 162.007 88.4855 162.007L109.737 183.258H94.6686C94.5646 183.102 94.6166 182.946 94.4607 182.79L76.3791 164.709C80.4319 164.085 84.4327 163.202 88.3296 162.059ZM106.827 156.395C106.931 156.551 106.879 156.759 107.035 156.863L133.43 183.258H117.79L94.6686 160.136C98.8772 158.837 102.982 157.59 106.827 156.395ZM123.194 151.2L155.252 183.258H140.86C140.704 182.894 140.704 182.531 140.444 182.271L112.75 154.525C113.53 154.265 114.361 154.005 115.088 153.797C117.894 152.862 120.544 152.031 123.194 151.2ZM160.5 141.431C160.604 141.587 160.552 141.847 160.708 142.003L202.015 183.258H185.18L146.315 144.393C151.044 143.198 155.772 142.263 160.5 141.431ZM204.665 139.976C204.769 140.184 204.769 140.444 204.977 140.652L249.245 183.258H232.463L188.298 139.093C191.623 139.093 195.053 139.197 198.69 139.457C200.716 139.561 202.69 139.717 204.665 139.976ZM180.4 139.301L224.409 183.258H210.121L167.203 140.392C171.411 139.821 175.828 139.457 180.4 139.301ZM140.6 146.004C140.704 146.471 140.808 146.939 141.172 147.303L177.127 183.258H162.994C162.89 183.102 162.942 182.894 162.786 182.738L129.377 149.277C133.222 148.082 136.963 146.991 140.6 146.004ZM5.71545 170.476L17.7698 183.258H5.71545V170.476ZM214.017 141.431C238.178 146.315 248.206 157.538 250.337 160.24V176.399L214.017 141.431ZM51.3351 206.639C53.3095 206.432 55.2839 206.224 57.4142 206.12C60.9994 205.912 64.4287 205.808 67.806 205.808L23.6412 249.973H6.80658L51.0753 207.367C51.2312 207.159 51.1792 206.847 51.3351 206.639ZM88.8492 207.055L45.9314 249.921H31.6428L75.6517 205.964C80.1721 206.172 84.5886 206.483 88.8492 207.055ZM109.685 211.108L70.8196 249.921H53.985L95.2921 208.666C95.4479 208.51 95.396 208.302 95.4999 208.094C100.228 208.926 104.956 209.913 109.685 211.108ZM140.964 220.46C141.691 220.72 142.522 220.98 143.25 221.188L115.504 248.934C115.244 249.193 115.244 249.609 115.088 249.921H100.696L132.806 217.862C135.456 218.694 138.106 219.577 140.964 220.46ZM161.331 226.851L138.21 249.921H122.57L148.965 223.526C149.121 223.37 149.069 223.214 149.173 223.058C153.018 224.305 157.123 225.552 161.331 226.851ZM167.67 228.774C171.567 229.917 175.568 230.8 179.621 231.424L161.539 249.505C161.435 249.609 161.435 249.817 161.331 249.973H146.263L167.515 228.722C167.515 228.722 167.566 228.722 167.67 228.774ZM195.78 232.775C197.702 232.775 199.521 232.619 201.34 232.515L183.933 249.921H169.125L186.739 232.307C189.753 232.567 192.714 232.775 195.78 232.775ZM228.826 227.735L206.899 249.661C206.795 249.765 206.847 249.869 206.795 249.973H191.935L210.173 231.735C216.979 230.8 223.318 229.397 228.826 227.735ZM93.1618 249.401C93.0059 249.557 93.0578 249.765 92.9539 249.921H78.8732L114.828 213.965C115.192 213.602 115.244 213.134 115.4 212.667C119.089 213.706 122.83 214.797 126.675 215.94L93.1618 249.401ZM214.641 249.921L240.828 223.734C240.932 223.578 240.932 223.422 241.036 223.266C244.881 221.655 248.05 220.097 250.337 218.85V228.826L230.436 249.921H214.641ZM5.71545 226.955C7.84575 224.201 17.8738 213.03 42.0345 208.146L5.71545 243.114V226.955ZM238.282 249.921L250.337 237.139V249.921H238.282ZM250.285 212.355C244.933 215.472 223.214 227.059 195.78 227.059C186.687 227.059 177.802 225.812 169.281 223.266C159.565 220.408 150.836 217.603 142.73 215.005C112.958 205.496 90.408 198.274 57.0505 200.404C28.3174 202.223 12.9377 212.095 5.71545 218.642V188.921H208.406C208.718 189.025 208.977 189.285 209.289 189.285C209.601 189.285 209.861 189.025 210.173 188.921H250.388V212.355H250.285ZM250.285 151.979C243.114 145.484 227.683 135.612 198.949 133.741C165.592 131.611 143.042 138.833 113.322 148.342C105.164 150.94 96.4352 153.745 86.7189 156.603C78.1977 159.097 69.2608 160.396 60.1681 160.396C32.7339 160.396 11.0152 148.809 5.66349 145.692V116.595H45.4638C45.8794 116.803 46.2951 116.907 46.7108 116.907C47.0225 116.907 47.2304 116.647 47.5421 116.595H250.285V151.979V151.979ZM250.285 83.6014C244.725 86.5111 223.058 96.8508 195.728 96.8508C186.635 96.8508 177.698 95.7077 169.177 93.4216C159.461 90.8236 150.732 88.3296 142.626 85.9395C112.854 77.3144 90.356 70.7676 57.0505 72.742C28.2655 74.4047 12.8857 83.3935 5.71545 89.3168V55.5437H208.354C208.666 55.6477 208.926 55.9074 209.289 55.9074C209.601 55.9074 209.913 55.6477 210.224 55.5437H250.388V83.6014H250.285ZM204.977 7.2742L249.245 49.8803H232.411L188.246 5.71545C191.571 5.71545 195.001 5.81936 198.586 6.0272C200.664 6.18307 202.69 6.33895 204.665 6.54678C204.769 6.80658 204.769 7.11833 204.977 7.2742ZM210.017 49.8803L167.151 7.01441C171.411 6.44287 175.828 6.13111 180.4 5.92328L224.357 49.8803H210.017ZM160.5 8.05358C160.604 8.20946 160.552 8.46925 160.708 8.62513L202.015 49.8803H185.18L146.367 11.0672C151.096 9.87213 155.772 8.88492 160.5 8.05358ZM162.994 49.8803C162.89 49.7244 162.942 49.5165 162.786 49.3607L129.377 15.8993C133.222 14.7043 136.963 13.6132 140.652 12.6259C140.756 13.0936 140.86 13.5612 141.172 13.9249L177.127 49.8803H162.994ZM140.912 49.8803C140.756 49.5685 140.756 49.1528 140.496 48.893L112.75 21.1471C113.53 20.8874 114.361 20.6276 115.088 20.4197C117.894 19.5364 120.544 18.6531 123.194 17.8218L155.252 49.8803H140.912ZM117.79 49.8803L94.6686 26.8106C98.8772 25.5117 102.982 24.2647 106.827 23.0696C106.931 23.2255 106.879 23.4333 107.035 23.5372L133.43 49.8803H117.79ZM94.6686 49.8803C94.5646 49.7763 94.6166 49.5685 94.5127 49.4646L76.3791 31.383C80.4319 30.7075 84.4327 29.8762 88.3296 28.7331C88.3816 28.7331 88.4335 28.6811 88.4855 28.6811L109.737 49.8803H94.6686ZM72.0666 49.8803L54.6604 32.4741C56.531 32.578 58.3495 32.7339 60.22 32.7339C63.2336 32.7339 66.2472 32.5261 69.2608 32.2663L86.8748 49.8803H72.0666ZM49.2048 49.8803C49.1528 49.7763 49.1528 49.6724 49.1009 49.5685L27.1743 27.642C32.682 29.3046 38.9689 30.7075 45.7755 31.6428L64.013 49.8803H49.2048ZM14.9641 23.2775C15.068 23.4333 15.016 23.5892 15.1719 23.7451L41.359 49.8803H25.5117L5.71545 28.7851V18.861C8.00162 20.056 11.1711 21.6148 14.9641 23.2775ZM214.017 8.10554C238.178 12.9896 248.206 24.2127 250.337 26.9146V43.0737L214.017 8.10554ZM250.285 18.6012C245.972 14.6523 238.594 9.56038 227.215 5.66349H250.285V18.6012ZM113.374 14.9641C105.216 17.562 96.4871 20.3678 86.7709 23.2255C78.2496 25.7195 69.3128 27.0185 60.22 27.0185C32.7859 27.0185 11.0672 15.4317 5.71545 12.3142V5.71545H144.445C134.469 8.26142 124.389 11.4309 113.374 14.9641ZM17.7179 49.8803H5.71545V37.0984L17.7179 49.8803Z" fill="white"/>
</svg>
