<svg width="256" height="256" viewBox="0 0 256 256" fill="none" xmlns="http://www.w3.org/2000/svg">
<g clip-path="url(#clip0)">
<path d="M156.724 241.792C157.604 241.415 158.149 240.534 158.107 239.57C158.065 238.606 157.394 237.768 156.472 237.517C155.634 237.265 151.778 235.714 152.491 230.601H172.776C172.357 235.086 174.117 238.145 176.339 239.989C172.483 244.097 173.028 250.845 174.117 254.449C174.411 255.455 175.333 256.084 176.297 256.084C176.506 256.084 176.716 256.042 176.967 256C178.183 255.623 178.853 254.365 178.518 253.15C178.476 253.066 175.961 244.265 181.536 241.876C182.416 241.498 182.961 240.618 182.919 239.654C182.877 238.69 182.206 237.852 181.284 237.601C180.446 237.349 176.59 235.798 177.303 230.685H197.588C197.169 235.17 198.929 238.229 201.151 240.073C197.295 244.181 197.84 250.929 198.929 254.533C199.223 255.539 200.145 256.168 201.109 256.168C201.318 256.168 201.528 256.126 201.779 256.084C202.995 255.707 203.665 254.449 203.33 253.234C203.288 253.15 200.773 244.348 206.348 241.959C207.228 241.582 207.773 240.702 207.731 239.738C207.689 238.774 207.018 237.936 206.096 237.684C205.258 237.433 201.402 235.882 202.115 230.769H222.4C221.981 235.253 223.741 238.313 225.963 240.157C222.149 244.265 222.694 251.012 223.741 254.617C224.035 255.623 224.957 256.251 225.921 256.251C226.13 256.251 226.382 256.21 226.591 256.168C227.807 255.79 228.477 254.533 228.142 253.318C228.1 253.234 225.585 244.432 231.16 242.043C232.04 241.666 232.585 240.786 232.543 239.822C232.501 238.858 231.83 238.02 230.908 237.768C230.07 237.517 226.214 235.966 226.927 230.853H234.597C235.854 230.853 236.902 229.805 236.902 228.547C236.902 227.29 235.896 226.242 234.597 226.242H226.927C226.34 221.255 230.112 219.746 230.908 219.494C231.83 219.243 232.501 218.405 232.585 217.441C232.627 216.477 232.082 215.555 231.202 215.177C225.627 212.788 228.142 203.987 228.184 203.903C228.561 202.688 227.849 201.43 226.633 201.053C225.418 200.718 224.16 201.388 223.783 202.604C222.735 206.166 222.149 212.914 226.005 217.064C223.825 218.866 222.065 221.883 222.4 226.242H202.115C201.528 221.255 205.3 219.746 206.096 219.494C207.018 219.243 207.689 218.405 207.773 217.441C207.815 216.477 207.27 215.555 206.39 215.177C200.815 212.788 203.33 203.987 203.372 203.903C203.749 202.688 203.037 201.43 201.821 201.053C200.606 200.718 199.348 201.388 198.971 202.604C197.881 206.166 197.337 212.914 201.193 217.064C199.013 218.866 197.253 221.883 197.588 226.242H177.303C176.716 221.255 180.488 219.746 181.284 219.494C182.206 219.243 182.877 218.405 182.961 217.441C183.003 216.477 182.458 215.555 181.578 215.177C176.003 212.788 178.518 203.987 178.56 203.903C178.937 202.688 178.225 201.43 177.009 201.053C175.794 200.718 174.536 201.388 174.159 202.604C173.069 206.166 172.525 212.914 176.38 217.064C174.201 218.866 172.441 221.883 172.776 226.242H152.491C151.904 221.255 155.676 219.746 156.472 219.494C157.394 219.243 158.065 218.405 158.149 217.441C158.191 216.477 157.646 215.555 156.766 215.177C151.191 212.788 153.706 203.987 153.748 203.903C154.125 202.688 153.413 201.43 152.197 201.053C150.982 200.718 149.724 201.388 149.347 202.604C148.257 206.208 147.713 212.914 151.568 217.064C149.389 218.824 147.629 221.842 147.964 226.2C138.282 226.033 131.115 223.392 126.714 218.237C120.134 210.525 121.811 199.67 121.853 199.167V195.521H217.706C218.963 195.521 220.011 194.473 220.011 193.215C220.011 191.958 219.005 190.91 217.706 190.91H163.891C162.927 185.462 159.783 171.379 153.748 171.379C153.706 171.379 153.664 171.379 153.58 171.379L136.732 43.2953H140.881C142.138 43.2953 143.186 42.2475 143.186 40.9902V32.9011C143.186 32.7754 143.144 32.6496 143.102 32.5239V23.2194C143.102 21.962 142.096 20.9142 140.797 20.9142H131.828L127.259 1.76031C127.008 0.712508 126.086 0 125.038 0H114.811C113.764 0 112.842 0.712508 112.59 1.7184L107.686 20.9142H96.9568C95.6994 20.9142 94.6516 21.962 94.6516 23.2194V32.482C94.6097 32.6077 94.5678 32.7335 94.5678 32.9011V40.6549C94.5678 41.9122 95.5737 42.96 96.873 42.96H102.405L84.5927 171.17C78.8926 172.092 76.0007 185.378 75.1205 190.617H21.3052C20.0478 190.617 19 191.665 19 192.922C19 194.179 20.0059 195.227 21.3052 195.227H117.284V198.496C117.2 199.041 115.231 211.531 123.194 220.878C128.517 227.122 136.899 230.308 148.006 230.517C147.545 235.044 149.347 238.145 151.568 239.948C147.713 244.055 148.257 250.803 149.347 254.407C149.64 255.413 150.563 256.042 151.527 256.042C151.736 256.042 151.946 256 152.197 255.958C153.413 255.581 154.083 254.324 153.748 253.108C153.664 252.982 151.107 244.181 156.724 241.792ZM85.2633 175.654L85.892 175.57H117.242V190.617H79.6889C80.7367 184.54 83.5868 176.325 85.2633 175.654ZM123.194 4.61035L127.092 20.9561H112.38L116.572 4.61035H123.194ZM128.223 25.5246L129.439 30.5959H109.95L111.249 25.5246H128.223ZM99.1362 35.1644H138.576V38.3497H99.1362V35.1644ZM106.261 48.1572L116.111 57.0006L103.453 68.3589L106.261 48.1572ZM135.432 68.1493L123.026 57.0006L132.834 48.1991L135.432 68.1493ZM117.2 80.1362L106.597 71.7538L117.2 62.2397V80.1362ZM121.811 62.072L132.54 71.7119L121.811 80.22V62.072ZM117.2 109.642L104.417 99.835L117.158 89.7341L117.2 109.642ZM121.811 89.6084L134.678 99.7931L121.811 109.265V89.6084ZM117.242 145.687L98.9686 131.814L117.242 118.318V145.687ZM121.811 118.947L139.288 132.359L121.811 145.603V118.947ZM117.242 171.002H95.8251L117.242 154.782V171.002ZM121.811 154.95L142.976 171.002H121.811V154.95ZM123.194 150.255L143.773 134.664C143.899 134.622 144.024 134.622 144.108 134.58L148.718 169.661L123.194 150.255ZM143.06 129.467L122.984 114.043L139.749 101.679L139.791 101.637L143.437 129.257C143.312 129.341 143.186 129.425 143.06 129.467ZM123.278 84.9142L136.27 74.6038L139.288 97.6136L123.278 84.9142ZM102.615 74.4361L115.859 84.9561L99.3458 98.0327L102.615 74.4361ZM98.9267 101.176C99.0524 101.344 99.1781 101.553 99.3458 101.679L115.398 114.001L95.0707 128.964L98.9267 101.176ZM94.2744 134.748C94.5259 134.748 94.6935 134.622 94.945 134.538L115.65 150.255L89.3707 170.164L94.2744 134.748ZM132.163 43.3373C131.702 43.3792 131.241 43.463 130.864 43.7983L121.769 51.9712V44.0079C121.769 43.6306 121.643 43.2953 121.517 43.002H132.121L132.163 43.3373ZM117.494 42.96C117.326 43.2953 117.242 43.6306 117.242 43.9659V51.7616L108.273 43.7564C107.896 43.4211 107.435 43.3373 106.974 43.2953L107.016 42.96H117.494ZM121.811 175.612H153.161C155.047 175.99 158.191 184.414 159.322 190.659H121.811V175.612ZM138.492 25.5246V30.5959H134.133L132.917 25.5246H138.492ZM106.471 25.5246L105.172 30.5959H99.1781V25.5246H106.471Z" fill="white"/>
</g>
<defs>
<clipPath id="clip0">
<rect width="256" height="256" fill="white"/>
</clipPath>
</defs>
</svg>
