<svg id="alert" viewBox="0 0 14 17">
  <path fill-rule="evenodd" d="M13.9248,23 C13.9248,24.127 14.8388,25.04 15.9658,25.04 C17.0928,25.04 18.0058,24.127 18.0058,23 L13.9248,23 Z M14.8178,11.3281 C12.8358,11.8381 11.3718,13.6341 11.3718,15.7761 L11.3718,18.8381 C11.3718,19.1201 11.1438,19.3481 10.8618,19.3481 C10.2988,19.3481 9.8408,19.8061 9.8408,20.3691 L9.8408,21.1351 C9.8408,21.2761 9.9548,21.3901 10.0968,21.3901 L21.8338,21.3901 C21.9758,21.3901 22.0898,21.2741 22.0898,21.1351 L22.0898,20.3691 C22.0898,19.8051 21.6308,19.3481 21.0688,19.3481 C20.7868,19.3481 20.5588,19.1221 20.5588,18.8381 L20.5588,15.7761 C20.5588,13.6351 19.0948,11.8381 17.1138,11.3281 L17.1138,10.8001 C17.1138,10.1651 16.5998,9.6521 15.9658,9.6521 C15.3328,9.6521 14.8178,10.1661 14.8178,10.8001 L14.8178,11.3281 Z" transform="translate(-9 -9)"></path>
</svg>