<svg width="128" height="128" viewBox="0 0 128 128" fill="none" xmlns="http://www.w3.org/2000/svg">
<path fill-rule="evenodd" clip-rule="evenodd" d="M63.2222 16.4445C37.3876 16.4445 16.4445 37.3876 16.4445 63.2222C16.4445 89.0569 37.3876 110 63.2222 110C89.0569 110 110 89.0569 110 63.2222C110 37.3876 89.0569 16.4445 63.2222 16.4445ZM10.4445 63.2222C10.4445 34.0739 34.0739 10.4445 63.2222 10.4445C92.3706 10.4445 116 34.0739 116 63.2222C116 92.3706 92.3706 116 63.2222 116C34.0739 116 10.4445 92.3706 10.4445 63.2222ZM70.3333 42.387L72.4547 44.5083L89.0472 61.1009L91.1686 63.2222L89.0472 65.3435L72.4547 81.9361L70.3333 84.0575L66.0907 79.8148L68.212 77.6935L79.6833 66.2222H37.1482H34.1482L34.1482 60.2222H37.1482H79.6833L68.212 48.751L66.0907 46.6296L70.3333 42.387Z" fill="white"/>
</svg>
