<svg width="128" height="128" viewBox="0 0 128 128" fill="none" xmlns="http://www.w3.org/2000/svg">
<path fill-rule="evenodd" clip-rule="evenodd" d="M110.778 64C110.778 38.1653 89.8346 17.2222 64 17.2222C38.1653 17.2222 17.2222 38.1653 17.2222 64C17.2222 89.8346 38.1653 110.778 64 110.778C89.8346 110.778 110.778 89.8347 110.778 64ZM64 11.2222C93.1484 11.2222 116.778 34.8516 116.778 64C116.778 93.1484 93.1483 116.778 64 116.778C34.8516 116.778 11.2222 93.1484 11.2222 64C11.2222 34.8516 34.8516 11.2222 64 11.2222ZM84.8352 71.1111L82.7139 73.2324L66.1213 89.825L64 91.9463L61.8787 89.825L45.2861 73.2324L43.1648 71.1111L47.4074 66.8685L49.5287 68.9898L61 80.4611L61 37.9259L61 34.9259L67 34.9259L67 37.9259L67 80.4611L78.4713 68.9898L80.5926 66.8685L84.8352 71.1111Z" fill="white"/>
</svg>
