<?xml version="1.0" encoding="utf-8"?>
<!-- Generator: Adobe Illustrator 25.0.0, SVG Export Plug-In . SVG Version: 6.00 Build 0)  -->
<svg version="1.1" id="Calque_1" xmlns="http://www.w3.org/2000/svg" xmlns:xlink="http://www.w3.org/1999/xlink" x="0px" y="0px"
	 viewBox="0 0 20 18.3" style="enable-background:new 0 0 20 18.3;" xml:space="preserve">
<g>
	<g>
		<g>
			<path d="M3.9,17.6c0,0.4-0.3,0.6-0.6,0.6H0.6C0.3,18.3,0,18,0,17.6V6.3c0-0.4,0.3-0.6,0.6-0.6h2.6c0.4,0,0.6,0.3,0.6,0.6V17.6z
				 M3.9,3c0,0.4-0.3,0.6-0.6,0.6H0.6C0.3,3.6,0,3.3,0,3V0.6C0,0.3,0.3,0,0.6,0h2.6c0.4,0,0.6,0.3,0.6,0.6V3z M20,17.6
				c0,0.4-0.3,0.6-0.6,0.6h-2.6c-0.4,0-0.6-0.3-0.6-0.6v-4.8c0-1.6-0.1-2.6-0.2-3.1c-0.2-0.5-0.4-0.8-0.8-1.1
				c-0.4-0.3-0.8-0.4-1.4-0.4c-0.7,0-1.3,0.2-1.8,0.6s-0.9,0.9-1.1,1.5c-0.2,0.6-0.3,1.7-0.3,3.4v4c0,0.4-0.3,0.6-0.6,0.6H7.2
				c-0.4,0-0.6-0.3-0.6-0.6V6.3c0-0.4,0.3-0.6,0.6-0.6h2.3c0.4,0,0.6,0.3,0.6,0.6v0.9c0,0.4,0.2,0.4,0.4,0.2c1.2-1.3,2.7-2,4.4-2
				c0.9,0,1.6,0.2,2.4,0.5s1.3,0.7,1.6,1.2s0.6,1,0.8,1.6S20,10,20,11.2L20,17.6L20,17.6z"/>
		</g>
	</g>
</g>
</svg>
