<svg width="128" height="128" viewBox="0 0 128 128" fill="none" xmlns="http://www.w3.org/2000/svg">
<path fill-rule="evenodd" clip-rule="evenodd" d="M29.5 104.533C29.5 105.914 30.6193 107.033 32 107.033H96C97.3807 107.033 98.5 105.914 98.5 104.533V88C98.5 86.6193 97.3807 85.5 96 85.5C94.6193 85.5 93.5 86.6193 93.5 88V102.033H34.5V25.9666H76.4333V40.5332C76.4333 41.9139 77.5526 43.0332 78.9333 43.0332H93.5V50.6667C93.5 52.0474 94.6193 53.1667 96 53.1667C97.3807 53.1667 98.5 52.0474 98.5 50.6667V40.5332C98.5 39.8702 98.2366 39.2343 97.7678 38.7654L80.7011 21.6988C80.2323 21.2299 79.5964 20.9666 78.9333 20.9666H32C30.6193 20.9666 29.5 22.0858 29.5 23.4666V104.533ZM89.9645 38.0332H81.4333V29.5021L89.9645 38.0332Z" fill="white"/>
<path d="M44.2291 57.4531V80H50.8541V73.8438H54.0729C59.3385 73.8438 62.9166 70.6406 62.9166 65.6719C62.9166 60.6562 59.5416 57.4531 54.526 57.4531H44.2291ZM50.8541 62.4375H52.7604C54.9166 62.4375 56.2291 63.5469 56.2291 65.6875C56.2291 67.8438 54.9166 68.9531 52.7135 68.9531H50.8541V62.4375Z" fill="white"/>
<path d="M65.2604 57.4531V80H74.901C81.7291 80 85.7604 75.7812 85.7604 68.5625C85.7604 61.3438 81.7447 57.4531 74.901 57.4531H65.2604ZM71.8854 62.7188H73.9635C77.1354 62.7188 79.0104 64.7656 79.0104 68.5625C79.0104 72.7188 77.276 74.7344 73.9635 74.7344H71.8854V62.7188Z" fill="white"/>
<path d="M94.9791 80V72.0156H103.323V67.0469H94.9791V62.7188H104.198V57.4531H88.3541V80H94.9791Z" fill="white"/>
</svg>
