<svg width="128" height="128" viewBox="0 0 128 128" fill="none" xmlns="http://www.w3.org/2000/svg">
<path d="M87.6979 27.3729L95.7608 13.4791L90.8654 10.6666L82.8025 24.5623L44.2535 24.5623L36.153 11.1635L31.3103 14.0641L39.8273 28.1473L21.4573 59.8048H5.33337V65.4298H21.4554L40.2739 97.8823L32.2129 111.778L37.1102 114.59L45.1712 100.695H83.7202L91.8208 114.094L96.6634 111.193L88.1483 97.1117L106.52 65.4298H122.667V59.8048H106.518L87.6979 27.3729ZM82.8025 95.0717H45.1693L26.3508 62.6173L45.1693 30.1854H82.8044L101.623 62.6173L82.8025 95.0717Z" fill="white"/>
<path d="M52.4539 48.4088C52.3161 48.6683 52.2524 48.9597 52.2696 49.2521V76.0983C52.2698 76.3829 52.3462 76.6623 52.491 76.9085C52.6359 77.1546 52.8441 77.3586 53.0946 77.5C53.3452 77.6414 53.6291 77.7151 53.9178 77.7136C54.2065 77.7122 54.4896 77.6356 54.7387 77.4917L78.2609 64.0407C78.5116 63.8993 78.7199 63.695 78.8647 63.4487C79.0096 63.2024 79.0859 62.9227 79.0859 62.638C79.0859 62.3533 79.0096 62.0737 78.8647 61.8273C78.7199 61.581 78.5116 61.3768 78.2609 61.2353L54.7387 47.7658C54.4827 47.6172 54.1905 47.5399 53.8935 47.5423C53.5964 47.5446 53.3055 47.6265 53.052 47.7791C52.7984 47.9318 52.5917 48.1494 52.4539 48.4088Z" fill="white"/>
</svg>
