<svg width="155" height="49" viewBox="0 0 155 49" fill="none" xmlns="http://www.w3.org/2000/svg">
<g clip-path="url(#clip0)">
<path fill-rule="evenodd" clip-rule="evenodd" d="M10.3127 17.126H4.40421V24.4824H10.1389C11.4017 24.4824 12.259 24.1896 12.8035 23.6039C13.348 23.0065 13.5797 22.1045 13.5797 20.8628C13.5797 19.5391 13.4059 18.602 12.9193 17.9928C12.4212 17.3954 11.5986 17.126 10.3127 17.126ZM21.0058 0L31.2587 6.12646L41.5116 12.2529V13.4126H37.6074V31.7452L28.4667 13.4126H21.3186V35.5288V35.5874H25.6399V17.29L34.7806 35.5991H41.5116V36.7588L31.2587 42.8735L21.0058 49L10.7529 42.8735L0.5 36.7471V35.5874H4.40421V28.1958H10.1389C11.1005 28.1958 11.9114 28.3598 12.4675 28.7815C13.0236 29.2149 13.348 29.9178 13.348 31.0189V35.5874H17.6577V30.6675C17.6577 29.3672 17.3796 28.3364 16.7888 27.5984C16.1979 26.8721 15.2943 26.4504 14.0199 26.3684V26.3567C15.6998 26.1224 16.6845 25.3258 17.2522 24.2364C17.8199 23.1353 17.9589 21.7413 17.9589 20.3005C17.9589 17.782 17.368 16.06 16.1864 14.9589C14.9931 13.8695 13.2205 13.4009 10.8224 13.4009H0.5V12.2412L10.7529 6.11475L21.0058 0Z"/>
</g>
<path d="M44.67 18.018V31.5H47.262V20.214H53.508V18.018H44.67ZM54.7205 24.48C54.7205 30.456 55.6205 31.662 60.4805 31.662C64.9985 31.662 66.2585 30.474 66.2585 24.48C66.2585 19.314 65.0165 17.874 60.4805 17.874C55.9085 17.874 54.7205 19.314 54.7205 24.48ZM57.3485 24.768C57.3485 20.412 57.7805 20.07 60.4805 20.07C63.0905 20.07 63.6305 20.412 63.6305 24.768C63.6305 28.926 63.1805 29.466 60.4805 29.466C57.7805 29.466 57.3485 29.016 57.3485 24.768ZM71.01 27.072H74.394C77.94 27.072 79.2 26.136 79.2 22.446C79.2 18.756 77.454 18.018 74.16 18.018H68.418V31.5H71.01V27.072ZM71.01 20.214H74.142C75.906 20.214 76.572 20.736 76.572 22.68C76.572 24.462 75.906 24.876 74.142 24.876H71.01V20.214ZM89.4555 18.018L83.7855 29.268H83.7495C83.9295 28.296 83.9475 27.288 83.9475 26.874V18.018H81.3555V31.5H85.0635L90.7515 20.232H90.7695C90.5895 21.204 90.5715 22.194 90.5715 22.608V31.5H93.1635V18.018H89.4555ZM98.7819 25.614H101.284C102.778 25.614 103.552 26.154 103.552 27.648C103.552 29.16 102.778 29.61 100.42 29.61C97.5759 29.61 97.4499 28.944 97.4499 27.18H95.0019V27.738C95.0019 31.05 97.0179 31.644 100.42 31.644C104.848 31.644 106 30.366 106 27.648C106 25.902 105.496 25.038 103.75 24.57V24.498C105.172 24.048 105.658 23.22 105.658 21.33C105.658 18.954 103.93 17.874 100.438 17.874C96.7119 17.874 95.3439 18.72 95.1099 21.978H97.5759C97.5759 20.358 98.1159 19.908 100.42 19.908C102.544 19.908 103.21 20.358 103.21 21.834C103.21 23.148 102.472 23.688 100.87 23.688H98.7819V25.614ZM107.982 24.48C107.982 30.456 108.882 31.662 113.742 31.662C118.26 31.662 119.52 30.474 119.52 24.48C119.52 19.314 118.278 17.874 113.742 17.874C109.17 17.874 107.982 19.314 107.982 24.48ZM110.61 24.768C110.61 20.412 111.042 20.07 113.742 20.07C116.352 20.07 116.892 20.412 116.892 24.768C116.892 28.926 116.442 29.466 113.742 29.466C111.042 29.466 110.61 29.016 110.61 24.768ZM124.272 18.018H121.68V31.5H124.272V25.74H130.554V31.5H133.146V18.018H130.554V23.598H124.272V18.018ZM141.077 20.214H145.037V18.018H134.525V20.214H138.485V31.5H141.077V20.214ZM149.688 20.52V24.48H145.728V25.722H149.688V29.682H150.93V25.722H154.89V24.48H150.93V20.52H149.688Z"/>
<defs>
<clipPath id="clip0">
<rect width="41" height="49" />
</clipPath>
</defs>
</svg>
