<svg width="178" height="100" viewBox="0 0 178 100" fill="none" xmlns="http://www.w3.org/2000/svg">
<path d="M92.5009 47.8913V51.0766H98.1571V51.7018C98.1571 55.6908 96.9961 56.3458 92.7391 56.3458C88.0355 56.3458 87.2913 55.3336 87.2913 48.576C87.2913 42.0565 88.0058 40.8062 92.7093 40.8062C97.264 40.8062 97.8296 41.4314 98.1571 44.1701H102.235C101.997 38.6628 99.586 37.1744 92.7093 37.1744C84.4632 37.1744 82.945 40.3894 82.945 48.576C82.945 57.1793 84.2548 59.9776 92.7093 59.9776C100.717 59.9776 102.355 57.4472 102.355 50.3324V47.8913H92.5009ZM109.915 52.2376H115.839C117.833 52.2376 119.173 52.8925 119.173 55.155V59.7097H123.46V54.7978C123.46 52.2078 122.358 50.6598 119.738 50.511V50.3919C123.192 49.9454 123.757 47.2066 123.757 44.319C123.757 39.2582 121.376 37.4125 116.523 37.4125H105.628V59.7097H109.915V52.2376ZM109.915 41.0444H116.017C118.696 41.0444 119.411 42.1756 119.411 44.8846C119.411 47.415 118.458 48.6058 115.839 48.6058H109.915V41.0444ZM131.602 37.4125H127.315V59.7097H131.602V37.4125ZM135.484 59.7097H145.814C152.869 59.7097 154.864 56.7625 154.864 47.8615C154.864 40.3894 152.869 37.4125 146.142 37.4125H135.484V59.7097ZM139.771 41.0444H145.814C149.476 41.0444 150.518 42.2351 150.518 48.576C150.518 54.8871 149.297 56.0778 145.01 56.0778H139.771V41.0444Z"/>
<g clip-path="url(#clip0)">
<path fill-rule="evenodd" clip-rule="evenodd" d="M31.2747 37.9608H21.4753V49.9713H30.9864C33.0808 49.9713 34.5027 49.4932 35.4058 48.5369C36.3088 47.5616 36.6931 46.0889 36.6931 44.0617C36.6931 41.9006 36.4049 40.3706 35.5979 39.376C34.7717 38.4007 33.4075 37.9608 31.2747 37.9608ZM49.0096 10L66.0144 20.0024L83.0192 30.0048V31.8982H76.5439V61.8288L61.3837 31.8982H49.5284V68.0062V68.1018H56.6954V38.2285L71.8556 68.121H83.0192V70.0143L66.0144 79.9976L49.0096 90L32.0048 79.9976L15 69.9952V68.1018H21.4753V56.0339H30.9864C32.5812 56.0339 33.9263 56.3017 34.8485 56.9902C35.7708 57.6978 36.3088 58.8453 36.3088 60.6431V68.1018H43.4566V60.0693C43.4566 57.9464 42.9955 56.2635 42.0155 55.0586C41.0356 53.8728 39.5369 53.1843 37.4233 53.0504V53.0313C40.2094 52.6488 41.8426 51.3483 42.7841 49.5697C43.7256 47.7719 43.9562 45.4961 43.9562 43.1437C43.9562 39.0318 42.9763 36.2204 41.0164 34.4227C39.0373 32.644 36.0975 31.879 32.1201 31.879H15V29.9857L32.0048 19.9833L49.0096 10Z" fill="#ED7319"/>
<mask id="mask0" mask-type="alpha" maskUnits="userSpaceOnUse" x="15" y="10" width="68" height="60">
<path fill-rule="evenodd" clip-rule="evenodd" d="M31.2747 37.9608H21.4753V49.9713H30.9864C33.0808 49.9713 34.5027 49.4932 35.4058 48.5369C36.3088 47.5616 36.6931 46.0889 36.6931 44.0617C36.6931 41.9006 36.4049 40.3706 35.5979 39.376C34.7717 38.4007 33.4075 37.9608 31.2747 37.9608ZM56.6954 45.4769L59.5391 43.8131L56.6954 38.2285V45.4769ZM41.4007 54.4657L49.5284 49.6844V31.879H61.3837L65.6109 40.2175L76.5439 33.7915V31.879H79.7912L83 29.9857C71.6635 23.3301 60.3461 16.6746 49.0096 10C37.6731 16.6746 26.3365 23.3301 15 30.0048V31.8982H32.1009C36.0591 31.8982 39.0181 32.644 40.9972 34.4418C42.9763 36.2204 43.937 39.0509 43.937 43.1628C43.937 45.5152 43.7064 47.7911 42.7649 49.5888C41.8234 51.3866 40.1902 52.6679 37.4041 53.0504V53.0696C39.1334 53.1652 40.44 53.6433 41.4007 54.4657ZM21.4753 66.1893L35.6363 57.8508C35.425 57.5066 35.156 57.2197 34.8485 56.9902C33.9263 56.2826 32.5812 56.0339 30.9864 56.0339H21.4753V66.1893ZM15 69.9952L18.2088 68.1018H15V69.9952Z" fill="url(#paint0_linear)"/>
</mask>
<g mask="url(#mask0)">
<path fill-rule="evenodd" clip-rule="evenodd" d="M31.2747 37.9608H21.4753V49.9713H30.9864C33.0808 49.9713 34.5027 49.4932 35.4058 48.5369C36.3088 47.5616 36.6931 46.0889 36.6931 44.0617C36.6931 41.9006 36.4049 40.3706 35.5979 39.376C34.7717 38.4007 33.4075 37.9608 31.2747 37.9608ZM56.6954 45.4769L59.5391 43.8131L56.6954 38.2285V45.4769ZM41.4007 54.4657L49.5284 49.6844V31.879H61.3837L65.6109 40.2175L76.5439 33.7915V31.879H79.7912L83 29.9857C71.6635 23.3301 60.3461 16.6746 49.0096 10C37.6731 16.6746 26.3365 23.3301 15 30.0048V31.8982H32.1009C36.0591 31.8982 39.0181 32.644 40.9972 34.4418C42.9763 36.2204 43.937 39.0509 43.937 43.1628C43.937 45.5152 43.7064 47.7911 42.7649 49.5888C41.8234 51.3866 40.1902 52.6679 37.4041 53.0504V53.0696C39.1334 53.1652 40.44 53.6433 41.4007 54.4657ZM21.4753 66.1893L35.6363 57.8508C35.425 57.5066 35.156 57.2197 34.8485 56.9902C33.9263 56.2826 32.5812 56.0339 30.9864 56.0339H21.4753V66.1893ZM15 69.9952L18.2088 68.1018H15V69.9952Z" fill="#C4512D"/>
</g>
<mask id="mask1" mask-type="alpha" maskUnits="userSpaceOnUse" x="15" y="10" width="69" height="60">
<path fill-rule="evenodd" clip-rule="evenodd" d="M36.6355 42.7229L28.527 37.9608H31.2747C33.4075 37.9608 34.7717 38.4007 35.5787 39.3952C36.2128 40.141 36.5394 41.2503 36.6355 42.7229ZM49.5284 50.3156L43.6488 46.8539C43.8601 45.6873 43.937 44.4251 43.937 43.1437C43.937 39.0318 42.9571 36.2204 40.9972 34.4227C39.0181 32.644 36.0783 31.879 32.1009 31.879H18.2088L15 30.0048C26.3365 23.3301 37.6731 16.6746 49.0096 10C60.3461 16.6746 71.6827 23.3301 83.0192 30.0048V31.8982H76.5439V61.8288L61.3837 31.8982H49.5284V50.3156ZM68.4739 61.4463L56.6954 54.5231V38.2285L68.4739 61.4463ZM83 69.9952L79.7912 68.1018H83V69.9952Z" fill="url(#paint1_linear)"/>
</mask>
<g mask="url(#mask1)">
<path fill-rule="evenodd" clip-rule="evenodd" d="M36.6355 42.7229L28.527 37.9608H31.2747C33.4075 37.9608 34.7717 38.4007 35.5787 39.3952C36.2128 40.141 36.5394 41.2503 36.6355 42.7229ZM49.5284 50.3156L43.6488 46.8539C43.8601 45.6873 43.937 44.4251 43.937 43.1437C43.937 39.0318 42.9571 36.2204 40.9972 34.4227C39.0181 32.644 36.0783 31.879 32.1009 31.879H18.2088L15 30.0048C26.3365 23.3301 37.6731 16.6746 49.0096 10C60.3461 16.6746 71.6827 23.3301 83.0192 30.0048V31.8982H76.5439V61.8288L61.3837 31.8982H49.5284V50.3156ZM68.4739 61.4463L56.6954 54.5231V38.2285L68.4739 61.4463ZM83 69.9952L79.7912 68.1018H83V69.9952Z" fill="#C4512D"/>
</g>
</g>
<defs>
<linearGradient id="paint0_linear" x1="45.9438" y1="51.5238" x2="30.3364" y2="23.6808" gradientUnits="userSpaceOnUse">
<stop stop-color="#D85C1D"/>
<stop offset="1" stop-color="#D85C1D" stop-opacity="0"/>
</linearGradient>
<linearGradient id="paint1_linear" x1="52.0562" y1="53.0476" x2="71.4596" y2="20.9993" gradientUnits="userSpaceOnUse">
<stop stop-color="#D3551D"/>
<stop offset="1" stop-color="#D85C1D" stop-opacity="0"/>
</linearGradient>
<clipPath id="clip0">
<rect width="68" height="80" fill="white" transform="translate(15 10)"/>
</clipPath>
</defs>
</svg>
