<svg width="178" height="100" viewBox="0 0 178 100" fill="none" xmlns="http://www.w3.org/2000/svg">
<path d="M83.2427 37.4125V59.7097H87.5294V41.0444H97.8594V37.4125H83.2427ZM104.449 52.3864H110.046C115.91 52.3864 117.994 50.8384 117.994 44.7357C117.994 38.6331 115.106 37.4125 109.659 37.4125H100.162V59.7097H104.449V52.3864ZM104.449 41.0444H109.629C112.546 41.0444 113.648 41.9077 113.648 45.1227C113.648 48.0699 112.546 48.7546 109.629 48.7546H104.449V41.0444ZM134.955 37.4125L125.578 56.0183H125.518C125.816 54.4107 125.846 52.7437 125.846 52.059V37.4125H121.559V59.7097H127.691L137.098 41.0741H137.128C136.831 42.6817 136.801 44.319 136.801 45.0037V59.7097H141.088V37.4125H134.955ZM145.319 56.0778H143.652V64.8597H147.641V59.7097H161.781V64.8597H165.77V56.0778H163.776V37.4125H147.641V46.7898C147.641 51.7613 147.075 54.2024 145.319 56.0481V56.0778ZM159.489 41.0444V56.0778H149.844C151.392 54.2321 151.838 51.285 151.838 46.7601V41.0444H159.489Z" />
<path fill-rule="evenodd" clip-rule="evenodd" d="M31.2747 37.9608H21.4753V49.9713H30.9864C33.0808 49.9713 34.5027 49.4932 35.4058 48.5369C36.3088 47.5616 36.6931 46.0889 36.6931 44.0617C36.6931 41.9006 36.4049 40.3706 35.5979 39.376C34.7717 38.4007 33.4075 37.9608 31.2747 37.9608ZM49.0096 10L83.0192 30.0048V31.8982H76.5439V61.8288L61.3837 31.8982H49.5284V68.1018H56.6954V38.2285L71.8556 68.121H83.0192V70.0143L49.0096 90L15 69.9952V68.1018H21.4753V56.0339H30.9864C32.5812 56.0339 33.9263 56.3017 34.8485 56.9902C35.7708 57.6978 36.3088 58.8453 36.3088 60.6431V68.1018H43.4566V60.0693C43.4566 57.9464 42.9955 56.2635 42.0155 55.0586C41.0356 53.8728 39.5369 53.1843 37.4233 53.0504V53.0313C40.2094 52.6488 41.8426 51.3483 42.7841 49.5697C43.7256 47.7719 43.9562 45.4961 43.9562 43.1437C43.9562 39.0318 42.9763 36.2204 41.0164 34.4227C39.0373 32.644 36.0975 31.879 32.1201 31.879H15V29.9857L49.0096 10Z" />
<path fill-rule="evenodd" clip-rule="evenodd" d="M31.2747 37.9608H21.4753V49.9713H30.9864C33.0808 49.9713 34.5027 49.4932 35.4058 48.5369C36.3088 47.5616 36.6931 46.0889 36.6931 44.0617C36.6931 41.9006 36.4049 40.3706 35.5979 39.376C34.7717 38.4007 33.4075 37.9608 31.2747 37.9608ZM56.6954 45.4769L59.5391 43.8131L56.6954 38.2285V45.4769ZM41.4007 54.4657L49.5284 49.6844V31.879H61.3837L65.6109 40.2175L76.5439 33.7915V31.879H79.7912L83 29.9857C71.6635 23.3301 60.3461 16.6746 49.0096 10C37.6731 16.6746 26.3365 23.3301 15 30.0048V31.8982H32.1009C36.0591 31.8982 39.0181 32.644 40.9972 34.4418C42.9763 36.2204 43.937 39.0509 43.937 43.1628C43.937 45.5152 43.7064 47.7911 42.7649 49.5888C41.8234 51.3866 40.1902 52.6679 37.4041 53.0504V53.0696C39.1334 53.1652 40.44 53.6433 41.4007 54.4657ZM21.4753 66.1893L35.6363 57.8508C35.425 57.5066 35.156 57.2197 34.8485 56.9902C33.9263 56.2826 32.5812 56.0339 30.9864 56.0339H21.4753V66.1893ZM15 69.9952L18.2088 68.1018H15V69.9952Z" />
<path fill-rule="evenodd" clip-rule="evenodd" d="M31.2747 37.9608H21.4753V49.9713H30.9864C33.0808 49.9713 34.5027 49.4932 35.4058 48.5369C36.3088 47.5616 36.6931 46.0889 36.6931 44.0617C36.6931 41.9006 36.4049 40.3706 35.5979 39.376C34.7717 38.4007 33.4075 37.9608 31.2747 37.9608ZM56.6954 45.4769L59.5391 43.8131L56.6954 38.2285V45.4769ZM41.4007 54.4657L49.5284 49.6844V31.879H61.3837L65.6109 40.2175L76.5439 33.7915V31.879H79.7912L83 29.9857C71.6635 23.3301 60.3461 16.6746 49.0096 10C37.6731 16.6746 26.3365 23.3301 15 30.0048V31.8982H32.1009C36.0591 31.8982 39.0181 32.644 40.9972 34.4418C42.9763 36.2204 43.937 39.0509 43.937 43.1628C43.937 45.5152 43.7064 47.7911 42.7649 49.5888C41.8234 51.3866 40.1902 52.6679 37.4041 53.0504V53.0696C39.1334 53.1652 40.44 53.6433 41.4007 54.4657ZM21.4753 66.1893L35.6363 57.8508C35.425 57.5066 35.156 57.2197 34.8485 56.9902C33.9263 56.2826 32.5812 56.0339 30.9864 56.0339H21.4753V66.1893ZM15 69.9952L18.2088 68.1018H15V69.9952Z" />
<path fill-rule="evenodd" clip-rule="evenodd" d="M36.6355 42.7229L28.527 37.9608H31.2747C33.4075 37.9608 34.7717 38.4007 35.5787 39.3952C36.2128 40.141 36.5394 41.2503 36.6355 42.7229ZM49.5284 50.3156L43.6488 46.8539C43.8601 45.6873 43.937 44.4251 43.937 43.1437C43.937 39.0318 42.9571 36.2204 40.9972 34.4227C39.0181 32.644 36.0783 31.879 32.1009 31.879H18.2088L15 30.0048C26.3365 23.3301 37.6731 16.6746 49.0096 10C60.3461 16.6746 71.6827 23.3301 83.0192 30.0048V31.8982H76.5439V61.8288L61.3837 31.8982H49.5284V50.3156ZM68.4739 61.4463L56.6954 54.5231V38.2285L68.4739 61.4463ZM83 69.9952L79.7912 68.1018H83V69.9952Z" />
<path fill-rule="evenodd" clip-rule="evenodd" d="M36.6355 42.7229L28.527 37.9608H31.2747C33.4075 37.9608 34.7717 38.4007 35.5787 39.3952C36.2128 40.141 36.5394 41.2503 36.6355 42.7229ZM49.5284 50.3156L43.6488 46.8539C43.8601 45.6873 43.937 44.4251 43.937 43.1437C43.937 39.0318 42.9571 36.2204 40.9972 34.4227C39.0181 32.644 36.0783 31.879 32.1009 31.879H18.2088L15 30.0048C26.3365 23.3301 37.6731 16.6746 49.0096 10C60.3461 16.6746 71.6827 23.3301 83.0192 30.0048V31.8982H76.5439V61.8288L61.3837 31.8982H49.5284V50.3156ZM68.4739 61.4463L56.6954 54.5231V38.2285L68.4739 61.4463ZM83 69.9952L79.7912 68.1018H83V69.9952Z" />
</svg>
