<svg width="178" height="100" viewBox="0 0 178 100" fill="none" xmlns="http://www.w3.org/2000/svg">
<path fill-rule="evenodd" clip-rule="evenodd" d="M31.275 37.96H21.475V49.971H30.986C33.081 49.971 34.503 49.493 35.406 48.537C36.309 47.562 36.693 46.089 36.693 44.062C36.693 41.901 36.405 40.371 35.598 39.376C34.772 38.401 33.408 37.96 31.275 37.96ZM49.01 10L83.02 30.005V31.898H76.545V61.828L61.385 31.898H49.528V68.102H56.695V38.228L71.855 68.121H83.02V70.014L49.01 90L15 69.995V68.102H21.475V56.034H30.986C32.581 56.034 33.926 56.302 34.849 56.99C35.771 57.698 36.309 58.845 36.309 60.643V68.102H43.457V60.069C43.457 57.946 42.995 56.263 42.016 55.059C41.036 53.873 39.536 53.184 37.423 53.05V53.031C40.209 52.649 41.843 51.348 42.784 49.57C43.726 47.772 43.956 45.496 43.956 43.144C43.956 39.032 42.976 36.22 41.016 34.423C39.037 32.644 36.097 31.879 32.12 31.879H15V29.986L49.01 10Z" />
<path fill-rule="evenodd" clip-rule="evenodd" d="M31.275 37.96H21.475V49.971H30.986C33.081 49.971 34.503 49.493 35.406 48.537C36.309 47.562 36.693 46.089 36.693 44.062C36.693 41.901 36.405 40.371 35.598 39.376C34.772 38.401 33.408 37.96 31.275 37.96ZM56.695 45.477L59.539 43.813L56.695 38.228V45.477ZM41.401 54.466L49.528 49.684V31.88H61.384L65.611 40.218L76.544 33.793V31.88H79.791L83 29.986C71.6659 23.3311 60.3358 16.6691 49.01 10C37.673 16.675 26.337 23.33 15 30.005V31.898H32.1C36.06 31.898 39.018 32.644 40.997 34.442C42.977 36.22 43.937 39.051 43.937 43.162C43.937 45.515 43.707 47.792 42.765 49.589C41.823 51.387 40.19 52.668 37.405 53.05V53.07C39.133 53.165 40.44 53.643 41.401 54.466ZM21.475 66.189L35.636 57.851C35.4304 57.5168 35.163 57.225 34.848 56.991C33.926 56.283 32.581 56.034 30.986 56.034H21.475V66.189ZM15 69.995L18.209 68.102H15V69.995Z" />
<path fill-rule="evenodd" clip-rule="evenodd" d="M31.275 37.96H21.475V49.971H30.986C33.081 49.971 34.503 49.493 35.406 48.537C36.309 47.562 36.693 46.089 36.693 44.062C36.693 41.901 36.405 40.371 35.598 39.376C34.772 38.401 33.408 37.96 31.275 37.96ZM56.695 45.477L59.539 43.813L56.695 38.228V45.477ZM41.401 54.466L49.528 49.684V31.88H61.384L65.611 40.218L76.544 33.793V31.88H79.791L83 29.986C71.6659 23.3311 60.3358 16.6691 49.01 10C37.673 16.675 26.337 23.33 15 30.005V31.898H32.1C36.06 31.898 39.018 32.644 40.997 34.442C42.977 36.22 43.937 39.051 43.937 43.162C43.937 45.515 43.707 47.792 42.765 49.589C41.823 51.387 40.19 52.668 37.405 53.05V53.07C39.133 53.165 40.44 53.643 41.401 54.466ZM21.475 66.189L35.636 57.851C35.4304 57.5168 35.163 57.225 34.848 56.991C33.926 56.283 32.581 56.034 30.986 56.034H21.475V66.189ZM15 69.995L18.209 68.102H15V69.995Z" />
<path fill-rule="evenodd" clip-rule="evenodd" d="M36.636 42.723L28.527 37.961L31.275 37.96C33.408 37.96 34.772 38.401 35.579 39.395C36.213 40.141 36.539 41.25 36.635 42.723H36.636ZM49.528 50.316L43.648 46.854C43.86 45.687 43.937 44.425 43.937 43.144C43.937 39.032 42.957 36.22 40.997 34.423C39.018 32.644 36.078 31.879 32.101 31.879H18.209L15 30.005C26.337 23.33 37.673 16.675 49.01 10C60.346 16.675 71.683 23.33 83.02 30.005V31.898H76.545V61.828L61.385 31.898H49.528V50.316ZM68.474 61.446L56.695 54.523V38.228L68.474 61.446ZM83 69.996L79.791 68.102H83V69.996Z" />
<path fill-rule="evenodd" clip-rule="evenodd" d="M36.636 42.723L28.527 37.961L31.275 37.96C33.408 37.96 34.772 38.401 35.579 39.395C36.213 40.141 36.539 41.25 36.635 42.723H36.636ZM49.528 50.316L43.648 46.854C43.86 45.687 43.937 44.425 43.937 43.144C43.937 39.032 42.957 36.22 40.997 34.423C39.018 32.644 36.078 31.879 32.101 31.879H18.209L15 30.005C26.337 23.33 37.673 16.675 49.01 10C60.346 16.675 71.683 23.33 83.02 30.005V31.898H76.545V61.828L61.385 31.898H49.528V50.316ZM68.474 61.446L56.695 54.523V38.228L68.474 61.446ZM83 69.996L79.791 68.102H83V69.996Z" />
<path d="M87.53 37.413H83.243V59.71H87.529V50.184H89.524L97.74 59.71H103.158L93.186 48.278L102.206 37.413H96.966L89.405 46.641H87.529V37.413H87.53ZM109.74 37.413H105.453V59.71H109.74V37.413ZM113.622 37.413V59.71H117.909V41.044L124.905 59.71H128.745L135.771 40.925V59.71H140.057V37.413H132.764L126.84 53.964H126.721L120.678 37.413H113.622V37.413Z" />
</svg>
