<svg width="178" height="100" viewBox="0 0 178 100" >
<g clip-path="url(#clip0)">
<path fill-rule="evenodd" clip-rule="evenodd" d="M31.2747 37.9608H21.4753V49.9713H30.9864C33.0808 49.9713 34.5027 49.4932 35.4058 48.5369C36.3088 47.5616 36.6931 46.0889 36.6931 44.0617C36.6931 41.9006 36.4049 40.3706 35.5979 39.376C34.7717 38.4007 33.4075 37.9608 31.2747 37.9608ZM49.0096 10L66.0144 20.0024L83.0192 30.0048V31.8982H76.5439V61.8288L61.3837 31.8982H49.5284V68.0062V68.1018H56.6954V38.2285L71.8556 68.121H83.0192V70.0143L66.0144 79.9976L49.0096 90L32.0048 79.9976L15 69.9952V68.1018H21.4753V56.0339H30.9864C32.5812 56.0339 33.9263 56.3017 34.8485 56.9902C35.7708 57.6978 36.3088 58.8453 36.3088 60.6431V68.1018H43.4566V60.0693C43.4566 57.9464 42.9955 56.2635 42.0155 55.0586C41.0356 53.8728 39.5369 53.1843 37.4233 53.0504V53.0313C40.2094 52.6488 41.8426 51.3483 42.7841 49.5697C43.7256 47.7719 43.9562 45.4961 43.9562 43.1437C43.9562 39.0318 42.9763 36.2204 41.0164 34.4227C39.0373 32.644 36.0975 31.879 32.1201 31.879H15V29.9857L32.0048 19.9833L49.0096 10Z" />
<mask id="mask0" mask-type="alpha" maskUnits="userSpaceOnUse" x="15" y="10" width="68" height="60">
<path fill-rule="evenodd" clip-rule="evenodd" d="M31.2747 37.9608H21.4753V49.9713H30.9864C33.0808 49.9713 34.5027 49.4932 35.4058 48.5369C36.3088 47.5616 36.6931 46.0889 36.6931 44.0617C36.6931 41.9006 36.4049 40.3706 35.5979 39.376C34.7717 38.4007 33.4075 37.9608 31.2747 37.9608ZM56.6954 45.4769L59.5391 43.8131L56.6954 38.2285V45.4769ZM41.4007 54.4657L49.5284 49.6844V31.879H61.3837L65.6109 40.2175L76.5439 33.7915V31.879H79.7912L83 29.9857C71.6635 23.3301 60.3461 16.6746 49.0096 10C37.6731 16.6746 26.3365 23.3301 15 30.0048V31.8982H32.1009C36.0591 31.8982 39.0181 32.644 40.9972 34.4418C42.9763 36.2204 43.937 39.0509 43.937 43.1628C43.937 45.5152 43.7064 47.7911 42.7649 49.5888C41.8234 51.3866 40.1902 52.6679 37.4041 53.0504V53.0696C39.1334 53.1652 40.44 53.6433 41.4007 54.4657ZM21.4753 66.1893L35.6363 57.8508C35.425 57.5066 35.156 57.2197 34.8485 56.9902C33.9263 56.2826 32.5812 56.0339 30.9864 56.0339H21.4753V66.1893ZM15 69.9952L18.2088 68.1018H15V69.9952Z" />
</mask>
<g mask="url(#mask0)">
<path fill-rule="evenodd" clip-rule="evenodd" d="M31.2747 37.9608H21.4753V49.9713H30.9864C33.0808 49.9713 34.5027 49.4932 35.4058 48.5369C36.3088 47.5616 36.6931 46.0889 36.6931 44.0617C36.6931 41.9006 36.4049 40.3706 35.5979 39.376C34.7717 38.4007 33.4075 37.9608 31.2747 37.9608ZM56.6954 45.4769L59.5391 43.8131L56.6954 38.2285V45.4769ZM41.4007 54.4657L49.5284 49.6844V31.879H61.3837L65.6109 40.2175L76.5439 33.7915V31.879H79.7912L83 29.9857C71.6635 23.3301 60.3461 16.6746 49.0096 10C37.6731 16.6746 26.3365 23.3301 15 30.0048V31.8982H32.1009C36.0591 31.8982 39.0181 32.644 40.9972 34.4418C42.9763 36.2204 43.937 39.0509 43.937 43.1628C43.937 45.5152 43.7064 47.7911 42.7649 49.5888C41.8234 51.3866 40.1902 52.6679 37.4041 53.0504V53.0696C39.1334 53.1652 40.44 53.6433 41.4007 54.4657ZM21.4753 66.1893L35.6363 57.8508C35.425 57.5066 35.156 57.2197 34.8485 56.9902C33.9263 56.2826 32.5812 56.0339 30.9864 56.0339H21.4753V66.1893ZM15 69.9952L18.2088 68.1018H15V69.9952Z" />
</g>
<mask id="mask1" mask-type="alpha" maskUnits="userSpaceOnUse" x="15" y="10" width="69" height="60">
<path fill-rule="evenodd" clip-rule="evenodd" d="M36.6355 42.7229L28.527 37.9608H31.2747C33.4075 37.9608 34.7717 38.4007 35.5787 39.3952C36.2128 40.141 36.5394 41.2503 36.6355 42.7229ZM49.5284 50.3156L43.6488 46.8539C43.8601 45.6873 43.937 44.4251 43.937 43.1437C43.937 39.0318 42.9571 36.2204 40.9972 34.4227C39.0181 32.644 36.0783 31.879 32.1009 31.879H18.2088L15 30.0048C26.3365 23.3301 37.6731 16.6746 49.0096 10C60.3461 16.6746 71.6827 23.3301 83.0192 30.0048V31.8982H76.5439V61.8288L61.3837 31.8982H49.5284V50.3156ZM68.4739 61.4463L56.6954 54.5231V38.2285L68.4739 61.4463ZM83 69.9952L79.7912 68.1018H83V69.9952Z" />
</mask>
<g mask="url(#mask1)">
<path fill-rule="evenodd" clip-rule="evenodd" d="M36.6355 42.7229L28.527 37.9608H31.2747C33.4075 37.9608 34.7717 38.4007 35.5787 39.3952C36.2128 40.141 36.5394 41.2503 36.6355 42.7229ZM49.5284 50.3156L43.6488 46.8539C43.8601 45.6873 43.937 44.4251 43.937 43.1437C43.937 39.0318 42.9571 36.2204 40.9972 34.4227C39.0181 32.644 36.0783 31.879 32.1009 31.879H18.2088L15 30.0048C26.3365 23.3301 37.6731 16.6746 49.0096 10C60.3461 16.6746 71.6827 23.3301 83.0192 30.0048V31.8982H76.5439V61.8288L61.3837 31.8982H49.5284V50.3156ZM68.4739 61.4463L56.6954 54.5231V38.2285L68.4739 61.4463ZM83 69.9952L79.7912 68.1018H83V69.9952Z" />
</g>
</g>
<path d="M94.6835 52.0713V53.2355C94.6835 55.3162 93.6927 55.9107 90.4478 55.9107C87.1286 55.9107 86.2864 54.7712 86.2864 49.4457C86.2864 43.8724 87.0543 42.9807 90.3735 42.9807C93.6184 42.9807 94.4358 43.5009 94.6092 46.3742H98.077C97.7797 42.1138 96.5165 39.9588 90.3735 39.9588C84.2553 39.9588 82.67 42.7083 82.67 49.0989C82.67 56.9758 84.4039 58.9326 90.4973 58.9326C96.1697 58.9326 98.176 57.4216 98.176 53.1612V52.0713H94.6835ZM112.037 40.1569L104.234 55.6382H104.185C104.433 54.3006 104.457 52.9135 104.457 52.3438V40.1569H100.89V58.7097H105.993L113.82 43.2036H113.845C113.598 44.5412 113.573 45.9036 113.573 46.4733V58.7097H117.14V40.1569H112.037ZM120.363 40.1569V58.7097H123.93V43.1789H132.525V40.1569H120.363ZM134.441 40.1569V58.7097H138.008V43.1789L143.829 58.7097H147.024L152.87 43.0798V58.7097H156.437V40.1569H150.368L145.439 53.9291H145.34L140.312 40.1569H134.441ZM171.338 55.1676L172.527 58.7097H176.143L169.852 40.1569H164.625L158.458 58.7097H162.148L163.313 55.1676H171.338ZM170.521 52.5172H164.13L167.301 42.8816L170.521 52.5172Z" />
<defs>
<linearGradient id="paint0_linear" x1="45.9438" y1="51.5238" x2="30.3364" y2="23.6808" gradientUnits="userSpaceOnUse">
<stop stop-color="#1C1C1C" stop-opacity="0.2"/>
<stop offset="1" stop-opacity="0"/>
</linearGradient>
<linearGradient id="paint1_linear" x1="52.0562" y1="53.0476" x2="71.4596" y2="20.9993" gradientUnits="userSpaceOnUse">
<stop stop-color="#1C1C1C" stop-opacity="0.2"/>
<stop offset="1" stop-opacity="0"/>
</linearGradient>
<clipPath id="clip0">
<rect width="68" height="80" />
</clipPath>
</defs>
</svg>
