<?xml version="1.0" encoding="utf-8"?>
<!-- Generator: Adobe Illustrator 25.0.0, SVG Export Plug-In . SVG Version: 6.00 Build 0)  -->
<svg version="1.1" id="Layer_1" xmlns="http://www.w3.org/2000/svg" xmlns:xlink="http://www.w3.org/1999/xlink" x="0px" y="0px"
	 viewBox="0 0 19.8 17.3" style="enable-background:new 0 0 19.8 17.3;" xml:space="preserve">
<path d="M19.8,2c-0.7,0.4-1.5,0.6-2.4,0.7c0.9-0.6,1.5-1.4,1.8-2.4c-0.8,0.5-1.7,0.9-2.6,1.1C15.9,0.6,14.8,0,13.7,0
	c-2.2,0-4,1.9-4,4.4c0,0.3,0.1,0.7,0.1,1C6.4,5.3,3.3,3.5,1.3,0.9C1,1.3,0.8,2.1,0.8,2.9c0,1.5,0.7,2.9,1.8,3.7
	C1.9,6.6,1.3,6.4,0.7,6v0.1c0,2.1,1.4,3.9,3.2,4.3c-0.2,0.1-0.6,0.1-1,0.1c-0.2,0-0.5,0-0.7-0.1c0.5,1.7,2,3,3.8,3.1
	c-1.4,1.2-3.2,1.9-5,1.9c-0.3,0-0.7,0-1-0.1c1.8,1.2,3.9,2,6.2,2c7.5,0,11.6-6.7,11.6-12.5c0-0.2,0-0.4,0-0.6
	C18.6,3.7,19.3,2.8,19.8,2z"/>
</svg>
